<?xml version="1.0" encoding="UTF-8" standalone="no"?>
<!-- Created with Inkscape (http://www.inkscape.org/) -->

<svg
   xmlns:dc="http://purl.org/dc/elements/1.1/"
   xmlns:cc="http://creativecommons.org/ns#"
   xmlns:rdf="http://www.w3.org/1999/02/22-rdf-syntax-ns#"
   xmlns:svg="http://www.w3.org/2000/svg"
   xmlns="http://www.w3.org/2000/svg"
   xmlns:sodipodi="http://sodipodi.sourceforge.net/DTD/sodipodi-0.dtd"
   xmlns:inkscape="http://www.inkscape.org/namespaces/inkscape"
   width="174.87904mm"
   height="21.590071mm"
   viewBox="0 0 174.87904 21.590071"
   version="1.1"
   id="svg3805"
   sodipodi:docname="test.svg"
   inkscape:version="0.92.3 (2405546, 2018-03-11)">
  <defs
     id="defs3799" />
  <sodipodi:namedview
     id="base"
     pagecolor="#ffffff"
     bordercolor="#666666"
     borderopacity="1.0"
     inkscape:pageopacity="0.0"
     inkscape:pageshadow="2"
     inkscape:zoom="1.979899"
     inkscape:cx="305.16144"
     inkscape:cy="-118.79278"
     inkscape:document-units="mm"
     inkscape:current-layer="layer1"
     showgrid="false"
     inkscape:window-width="1920"
     inkscape:window-height="1053"
     inkscape:window-x="0"
     inkscape:window-y="27"
     inkscape:window-maximized="1" />
  <metadata
     id="metadata3802">
    <rdf:RDF>
      <cc:Work
         rdf:about="">
        <dc:format>image/svg+xml</dc:format>
        <dc:type
           rdf:resource="http://purl.org/dc/dcmitype/StillImage" />
        <dc:title></dc:title>
      </cc:Work>
    </rdf:RDF>
  </metadata>
  <g
     inkscape:label="Layer 1"
     inkscape:groupmode="layer"
     id="layer1"
     transform="translate(-4.15623,-5.93561)">
    <g
       id="g3925"
       transform="translate(-137.39434,-230.37649)">
      <path
         style="fill:#f3f3f3;stroke-width:0.25400001"
         d="m 191.33457,251.55215 c 0,-6.18067 0.0135,-6.35 0.508,-6.35 0.35224,0 0.508,0.16933 0.508,0.55228 v 0.55227 l 0.61918,-0.58169 c 0.85004,-0.79857 2.73454,-1.00132 3.82895,-0.41194 1.25451,0.6756 1.94496,2.13173 1.97098,4.1567 0.027,2.09896 -0.35672,3.30019 -1.36166,4.26298 -0.67303,0.64481 -0.96397,0.7404 -2.25346,0.7404 -1.0996,0 -1.61826,-0.12453 -2.01532,-0.48387 l -0.53467,-0.48386 v 2.19836 c 0,2.17559 -0.007,2.19837 -0.635,2.19837 h -0.635 z m 5.38858,1.26567 c 1.60112,-1.9773 0.98522,-6.14057 -0.98996,-6.69175 -0.99678,-0.27816 -1.9662,-0.0543 -2.62708,0.60654 -0.43579,0.43579 -0.50154,0.85167 -0.50154,3.17227 v 2.67074 l 0.8255,0.5176 c 1.04546,0.65553 2.64777,0.52153 3.29308,-0.2754 z m 71.42576,1.77663 c -1.80559,-0.55511 -2.36614,-2.0529 -2.38119,-6.36255 -0.0184,-5.26698 0.83681,-6.71275 3.97072,-6.71275 1.85421,0 2.72971,0.51077 3.51113,2.04839 0.43621,0.85834 0.508,1.50215 0.508,4.55561 0,3.92261 -0.31372,5.04227 -1.69558,6.05158 -0.77791,0.56817 -2.74418,0.77908 -3.91308,0.41972 z m 2.4791,-3.1693 c 0.23142,-1.31147 0.23116,-5.29556 -5e-4,-6.60127 -0.12643,-0.71275 -0.32427,-1.0411 -0.66708,-1.10712 -0.94557,-0.18211 -1.15586,0.6083 -1.15586,4.34464 0,3.78861 0.19582,4.58722 1.09327,4.45866 0.42245,-0.0605 0.59269,-0.31579 0.73017,-1.09491 z m 5.76,3.05759 c -1.07823,-0.60784 -1.23344,-1.5407 -1.23344,-7.41349 v -5.4231 h 1.524 1.524 v 5.34197 c 0,4.71137 0.0491,5.3608 0.41552,5.50143 0.22854,0.0877 0.60002,0.0432 0.8255,-0.0989 0.3519,-0.22177 0.41971,-1.00121 0.47863,-5.50142 l 0.0687,-5.24304 h 1.51884 1.51885 v 6.477 6.477 h -1.13816 c -1.01014,0 -1.15657,-0.0733 -1.30181,-0.65204 l -0.16366,-0.65204 -0.70184,0.67241 c -0.85743,0.82147 -2.37504,1.05548 -3.33509,0.51426 z m 14.732,0 c -1.07823,-0.60784 -1.23344,-1.5407 -1.23344,-7.41349 v -5.4231 h 1.524 1.524 v 5.34197 c 0,4.71137 0.049,5.3608 0.41552,5.50143 0.22854,0.0877 0.60002,0.0432 0.8255,-0.0989 0.3519,-0.22177 0.41971,-1.00121 0.47863,-5.50142 l 0.0687,-5.24304 h 1.51884 1.51885 v 6.477 6.477 h -1.13816 c -1.01014,0 -1.15657,-0.0733 -1.30181,-0.65204 l -0.16366,-0.65204 -0.70184,0.67241 c -0.85743,0.82147 -2.37504,1.05548 -3.33509,0.51426 z m 12.48778,0.0975 c -0.34638,-0.14349 -0.81762,-0.43089 -1.04722,-0.63867 -0.37337,-0.3379 -0.43175,-0.32308 -0.55294,0.14038 -0.11402,0.43598 -0.34066,0.51815 -1.42928,0.51815 h -1.29378 v -9.144 -9.144 h 1.524 1.524 v 3.21928 3.21927 l 0.59858,-0.56233 c 1.40012,-1.31535 3.37404,-0.87177 4.17429,0.93804 0.5312,1.20135 0.61031,8.05644 0.10926,9.46789 -0.60623,1.70771 -2.18295,2.57586 -3.60691,1.98599 z m 0.54643,-2.58364 c 0.35544,-0.64381 0.464,-6.46863 0.14201,-7.62 -0.22214,-0.79433 -0.93344,-0.93043 -1.56452,-0.29936 -0.32672,0.32673 -0.39914,1.07791 -0.39914,4.1402 0,2.57105 0.0953,3.83639 0.3048,4.04586 0.47947,0.47947 1.17213,0.35768 1.51685,-0.2667 z m 7.134,2.67853 c -1.04209,-0.20096 -2.0386,-1.48807 -2.3634,-3.05263 -0.46418,-2.23593 -0.21863,-7.08487 0.42222,-8.33773 0.89864,-1.75682 3.25045,-2.41555 5.16889,-1.44778 1.43863,0.72574 1.8242,1.69294 1.87209,4.69615 l 0.0416,2.60596 -2.3495,0.073 -2.3495,0.073 0.004,1.32397 c 0.005,1.59753 0.23992,2.03094 1.04083,1.91769 0.46209,-0.0653 0.66224,-0.31225 0.84158,-1.03822 0.23238,-0.94072 0.25084,-0.9525 1.49281,-0.9525 h 1.25752 l -0.12283,1.27829 c -0.22319,2.32279 -2.10703,3.41016 -4.95615,2.86074 z m 2.22035,-8.94689 c 0,-1.03029 -0.12605,-1.63191 -0.39914,-1.905 -0.49044,-0.49043 -0.48928,-0.49043 -0.97972,0 -0.27309,0.27309 -0.39914,0.87471 -0.39914,1.905 v 1.50586 h 0.889 0.889 z m -159.14359,8.51458 c -1.04344,-0.45449 -2.08929,-1.74693 -2.2932,-2.83389 -0.0919,-0.48962 -0.11849,-1.56093 -0.0592,-2.38069 0.2311,-3.19487 3.25015,-5.08726 5.71669,-3.58332 1.14235,0.69654 1.61133,1.53075 1.78016,3.16651 l 0.14621,1.41667 h -3.34237 -3.34238 l 0.16749,0.6985 c 0.62364,2.60092 2.73315,3.60544 4.72824,2.25154 0.93995,-0.63787 1.59601,-0.54173 1.31423,0.19259 -0.24414,0.6362 -1.96779,1.4309 -3.07866,1.41943 -0.52944,-0.005 -1.31119,-0.16177 -1.73721,-0.34734 z m 3.94959,-5.87833 c 0,-1.27307 -1.25842,-2.40039 -2.67953,-2.40039 -0.78206,0 -2.07883,1.18563 -2.29194,2.0955 l -0.1636,0.6985 h 2.56753 c 2.14949,0 2.56754,-0.0641 2.56754,-0.39361 z m 12.81441,5.87833 c -1.04344,-0.45449 -2.08929,-1.74693 -2.2932,-2.83389 -0.0919,-0.48962 -0.1185,-1.56093 -0.0592,-2.38069 0.2311,-3.19487 3.25015,-5.08726 5.71669,-3.58332 1.14235,0.69654 1.61133,1.53075 1.78016,3.16651 l 0.14621,1.41667 h -3.34237 -3.34238 l 0.16749,0.6985 c 0.62364,2.60092 2.73315,3.60544 4.72824,2.25154 0.93995,-0.63787 1.59601,-0.54173 1.31422,0.19259 -0.24413,0.6362 -1.96778,1.4309 -3.07865,1.41943 -0.52944,-0.005 -1.31119,-0.16177 -1.73721,-0.34734 z m 3.94959,-5.87833 c 0,-1.27307 -1.25842,-2.40039 -2.67953,-2.40039 -0.78206,0 -2.07883,1.18563 -2.29194,2.0955 l -0.1636,0.6985 h 2.56753 c 2.14949,0 2.56754,-0.0641 2.56754,-0.39361 z m 8.49641,5.8924 c -1.05097,-0.47685 -2.0906,-1.76799 -2.2932,-2.84796 -0.28513,-1.51985 0.002,-3.8594 0.5676,-4.62274 0.88472,-1.19433 2.07173,-1.83809 3.38919,-1.83809 4.27094,0 5.8451,6.29659 2.24142,8.96561 -0.85749,0.63509 -2.87155,0.81209 -3.90501,0.34318 z m 3.73239,-1.64724 c 1.22208,-1.36762 1.24785,-4.20744 0.0511,-5.62973 -1.24552,-1.48021 -3.65642,-1.18319 -4.56241,0.5621 -0.56234,1.08326 -0.5666,3.3727 -0.008,4.44814 0.90752,1.74811 3.22703,2.06604 4.51963,0.61949 z m 15.31761,1.63317 c -1.04344,-0.45449 -2.08929,-1.74693 -2.2932,-2.83389 -0.0919,-0.48962 -0.1185,-1.56093 -0.0592,-2.38069 0.2311,-3.19487 3.25015,-5.08726 5.71669,-3.58332 1.14235,0.69654 1.61133,1.53075 1.78016,3.16651 l 0.14621,1.41667 h -3.34237 -3.34238 l 0.16749,0.6985 c 0.62364,2.60092 2.73315,3.60544 4.72824,2.25154 0.93995,-0.63787 1.59601,-0.54173 1.31422,0.19259 -0.24413,0.6362 -1.96778,1.4309 -3.07865,1.41943 -0.52944,-0.005 -1.31119,-0.16177 -1.73721,-0.34734 z m 3.94959,-5.87833 c 0,-1.27307 -1.25842,-2.40039 -2.67953,-2.40039 -0.78206,0 -2.07883,1.18563 -2.29194,2.0955 l -0.1636,0.6985 h 2.56753 c 2.14949,0 2.56754,-0.0641 2.56754,-0.39361 z m 5.08,6.05623 c -0.60986,-0.22294 -1.53919,-1.15489 -1.97406,-1.97962 -0.58939,-1.11778 -0.56441,-4.0475 0.0461,-5.40621 0.87137,-1.93926 3.12777,-2.66974 4.90306,-1.58729 l 0.8161,0.49759 0.0729,-2.34004 c 0.0688,-2.2077 0.10523,-2.34464 0.64441,-2.42122 l 0.5715,-0.0812 v 6.62166 c 0,6.48644 -0.0105,6.62167 -0.51597,6.62167 -0.28379,0 -0.57893,-0.16406 -0.65587,-0.36457 -0.11647,-0.30352 -0.27466,-0.28241 -0.94453,0.12605 -0.76667,0.46747 -2.14348,0.61295 -2.96363,0.31314 z m 3.21142,-1.63284 c 0.54929,-0.51602 0.59858,-0.766 0.59858,-3.03548 0,-2.44982 -0.007,-2.47934 -0.78149,-3.13072 -0.95854,-0.80656 -2.19405,-0.86049 -3.11513,-0.13596 -1.73369,1.36372 -1.44647,6.06275 0.41893,6.85377 0.8258,0.35018 2.19932,0.087 2.87911,-0.55161 z m 25.97893,1.33996 c -0.59221,-0.47898 -0.61843,-0.6365 -0.69735,-4.189 l -0.082,-3.69131 -0.80492,-0.0782 c -0.5253,-0.051 -0.83417,-0.23262 -0.88912,-0.52271 -0.0675,-0.35611 0.0963,-0.4445 0.82342,-0.4445 h 0.90762 v -1.27 c 0,-1.18533 0.0423,-1.27 0.635,-1.27 0.59267,0 0.635,0.0847 0.635,1.27 v 1.27 h 0.889 c 0.71967,0 0.889,0.0968 0.889,0.508 0,0.41124 -0.16933,0.508 -0.889,0.508 h -0.889 v 3.3782 c 0,3.66766 0.10753,3.9878 1.33942,3.9878 0.55783,0 0.70998,0.10475 0.64559,0.4445 -0.12636,0.66681 -1.73249,0.73025 -2.51266,0.0992 z m 19.49298,0.30293 c -0.0931,-0.0931 -0.1703,-1.49331 -0.17149,-3.1115 -0.002,-2.81406 -0.0683,-3.17996 -1.52184,-8.40317 -0.83583,-3.00355 -1.52065,-5.60958 -1.52184,-5.79118 -0.002,-0.24163 0.3895,-0.30974 1.45834,-0.254 l 1.4605,0.0762 0.87578,4.14232 0.87577,4.14232 0.90241,-4.14232 0.90241,-4.14232 1.46031,-0.0762 c 1.01108,-0.0527 1.46032,0.0179 1.46032,0.22954 0,0.16814 -0.74295,2.95235 -1.651,6.18714 -1.5623,5.56545 -1.651,6.02734 -1.651,8.59697 v 2.71553 h -1.35467 c -0.74506,0 -1.43086,-0.0762 -1.524,-0.16933 z m 24.72267,-7.45067 v -7.62 h -1.397 -1.397 v -1.143 -1.143 h 4.318 4.318 v 1.143 1.143 h -1.397 -1.397 v 7.62 7.62 h -1.524 -1.524 z m -143.51,1.16547 v -6.24547 l 2.0955,0.001 c 3.45032,0.002 4.94323,0.70854 6.10532,2.88804 0.45585,0.85495 0.55887,1.46783 0.56036,3.33355 0.002,2.79866 -0.59461,4.25074 -2.20684,5.36914 -0.96872,0.672 -1.25559,0.73334 -3.80107,0.81283 l -2.75327,0.086 z m 5.61394,4.61098 c 2.70841,-1.79988 2.7192,-7.62027 0.017,-9.17152 -0.51165,-0.29373 -1.54069,-0.5354 -2.6035,-0.61144 l -1.75745,-0.12575 v 5.24113 5.24113 h 1.74044 c 1.3826,0 1.91788,-0.11792 2.6035,-0.57355 z m 14.76894,-2.53795 c -0.84788,-2.27012 -1.62116,-4.32753 -1.71841,-4.572 -0.14001,-0.35195 -0.0446,-0.4445 0.45818,-0.4445 0.34925,0 0.68945,0.14287 0.75599,0.3175 0.0665,0.17462 0.66538,1.83593 1.33073,3.69178 0.66536,1.85585 1.24744,3.33657 1.29353,3.29049 0.0461,-0.0461 0.6447,-1.67881 1.33026,-3.62828 1.14273,-3.24953 1.30161,-3.55113 1.90917,-3.62433 l 0.66271,-0.0798 -0.61074,1.60384 c -0.3359,0.88211 -1.10496,2.94656 -1.70902,4.58767 -1.56056,4.23975 -1.70939,4.19383 -3.7024,-1.14233 z m 16.25233,-2.413 0.0678,-6.5405 0.5715,-0.0812 0.5715,-0.0812 v 6.62166 6.62167 h -0.63929 -0.63929 z m 46.67679,6.45575 c 0,-0.0466 -0.5715,-2.05458 -1.27,-4.46215 -0.6985,-2.40757 -1.27,-4.42683 -1.27,-4.48725 0,-0.0604 0.26535,-0.10985 0.58967,-0.10985 0.5436,0 0.66817,0.28778 1.59432,3.68328 l 1.00464,3.68328 1.12057,-3.68328 c 0.99516,-3.27107 1.18247,-3.68328 1.6737,-3.68328 0.55423,0 0.94959,0.98621 2.42163,6.04065 0.17422,0.59821 0.39534,0.99826 0.49138,0.889 0.096,-0.10926 0.56202,-1.71313 1.03552,-3.56415 0.78497,-3.06865 0.91143,-3.3655 1.43374,-3.3655 0.31506,0 0.57283,0.0971 0.57283,0.21566 0,0.20894 -1.77422,6.41818 -2.31942,8.1173 -0.20772,0.64736 -0.39265,0.82208 -0.80652,0.762 -0.45207,-0.0656 -0.71939,-0.65236 -1.69003,-3.70935 l -1.15303,-3.63139 -1.143,3.69219 c -1.02709,3.31778 -1.20095,3.69246 -1.7145,3.69489 -0.31433,0.002 -0.5715,-0.0354 -0.5715,-0.082 z m 11.176,-4.48725 v -4.572 h 0.635 0.635 v 4.572 4.572 h -0.635 -0.635 z m 8.89,-2.04967 v -6.62166 l 0.5715,0.0812 c 0.54283,0.0771 0.57517,0.20717 0.64462,2.59291 l 0.0731,2.51173 0.64584,-0.60673 c 0.528,-0.49604 0.91531,-0.60674 2.12271,-0.60674 2.58716,0 3.05054,0.91568 3.05278,6.0325 l 0.001,3.2385 h -0.635 -0.635 v -3.56755 c 0,-3.44909 -0.0207,-3.58824 -0.62346,-4.191 -0.96733,-0.96733 -2.49292,-0.75549 -3.49839,0.48578 -0.36573,0.45149 -0.43979,1.10258 -0.4445,3.90727 l -0.006,3.3655 h -0.635 -0.635 z m -8.89,-5.16215 c 0,-0.7364 0.55067,-0.99971 1.15958,-0.55446 0.6111,0.44685 0.29311,1.16228 -0.51661,1.16228 -0.50884,0 -0.64297,-0.1268 -0.64297,-0.60782 z"
         id="path3939"
         inkscape:connector-curvature="0" />
      <path
         style="fill:#e7e7e7;stroke-width:0.25400001"
         d="m 191.33457,251.55215 c 0,-6.18067 0.0135,-6.35 0.508,-6.35 0.34117,0 0.508,0.16933 0.508,0.5156 0,0.51165 0.006,0.51143 0.73556,-0.0282 1.13074,-0.83599 2.75593,-0.91801 3.81063,-0.19231 1.30302,0.89656 1.80381,2.05029 1.80381,4.15565 0,2.24988 -0.71437,3.83755 -2.032,4.51608 -1.09625,0.56453 -2.57735,0.43291 -3.59499,-0.31946 l -0.72301,-0.53455 v 2.29361 c 0,2.12427 -0.0375,2.2936 -0.508,2.2936 -0.49445,0 -0.508,-0.16933 -0.508,-6.35 z m 5.05032,1.6178 c 1.73736,-1.21689 1.73736,-5.57471 0,-6.7916 -0.97311,-0.68159 -2.42699,-0.53661 -3.29186,0.32826 -0.71247,0.71247 -0.74246,0.83638 -0.74246,3.06754 0,2.23116 0.03,2.35507 0.74246,3.06754 0.86487,0.86487 2.31875,1.00985 3.29186,0.32826 z m 72.41968,1.43798 c -2.48441,-0.46871 -2.921,-1.43797 -2.921,-6.48478 0,-4.18941 0.21267,-4.9361 1.72746,-6.06522 0.9406,-0.70112 3.32369,-0.73875 4.34643,-0.0686 1.31459,0.86135 1.75549,2.40875 1.7567,6.16542 0.001,3.01542 -0.0575,3.45177 -0.61276,4.572 -0.81064,1.6355 -2.2527,2.26684 -4.29683,1.8812 z m 1.71076,-2.56784 c 0.20138,-0.39469 0.31375,-1.79757 0.31375,-3.91694 0,-3.23307 -0.23116,-4.40129 -0.91553,-4.62678 -0.15841,-0.0522 -0.47273,0.0898 -0.6985,0.31558 -0.34233,0.34234 -0.41048,1.05805 -0.41048,4.3112 0,3.25315 0.0682,3.96886 0.41048,4.3112 0.51282,0.51281 0.89689,0.39635 1.30028,-0.39426 z m 6.44014,2.59175 c -0.33666,-0.0939 -0.85101,-0.49046 -1.143,-0.88117 -0.49528,-0.66272 -0.53634,-1.09351 -0.61199,-6.42065 l -0.0811,-5.71027 1.47809,0.0767 1.47809,0.0767 0.127,5.334 0.127,5.334 0.62077,0.0876 c 1.16205,0.16403 1.28423,-0.39263 1.28423,-5.85117 v -5.03145 h 1.397 1.397 v 6.477 6.477 h -1.12282 c -1.02991,0 -1.13607,-0.0604 -1.28303,-0.72943 l -0.16021,-0.72944 -0.72943,0.72944 c -0.40119,0.40119 -0.90033,0.72943 -1.1092,0.72943 -0.20887,0 -0.53199,0.0456 -0.71804,0.10124 -0.18605,0.0557 -0.61372,0.0244 -0.95037,-0.0695 z m 14.732,0 c -0.33666,-0.0939 -0.85101,-0.49046 -1.143,-0.88117 -0.49528,-0.66272 -0.53634,-1.09351 -0.61199,-6.42065 l -0.0811,-5.71027 1.47809,0.0767 1.47809,0.0767 0.127,5.334 0.127,5.334 0.62077,0.0876 c 1.16205,0.16403 1.28423,-0.39263 1.28423,-5.85117 v -5.03145 h 1.397 1.397 v 6.477 6.477 h -1.12282 c -1.02991,0 -1.13607,-0.0604 -1.28303,-0.72943 l -0.16021,-0.72944 -0.72943,0.72944 c -0.40119,0.40119 -0.90033,0.72943 -1.1092,0.72943 -0.20887,0 -0.53199,0.0456 -0.71804,0.10124 -0.18605,0.0557 -0.61372,0.0244 -0.95037,-0.0695 z m 19.97408,-0.0451 c -2.21739,-0.37597 -2.85198,-1.84244 -2.85198,-6.59061 0,-2.92646 0.0745,-3.5755 0.508,-4.42861 0.78075,-1.5363 1.65345,-2.04688 3.45669,-2.02238 2.73402,0.0371 3.48969,1.13764 3.51397,5.11749 l 0.0143,2.3495 h -2.286 -2.286 v 1.64206 c 0,1.42799 0.0723,1.68075 0.55448,1.93882 0.47209,0.25265 0.62306,0.21205 1.016,-0.27321 0.25384,-0.31347 0.46152,-0.84304 0.46152,-1.17681 0,-0.49354 0.13044,-0.60621 0.6985,-0.60339 1.87212,0.009 2.2347,0.59579 1.482,2.39724 -0.55465,1.32747 -2.27446,1.9902 -4.28152,1.6499 z m 1.99064,-8.94011 c -0.19929,-1.79757 -0.66071,-2.50071 -1.35489,-2.06468 -0.33047,0.20758 -0.45839,0.69563 -0.51484,1.9642 l -0.0751,1.68798 h 1.06041 1.06042 z m -159.4113,8.382 c -1.46658,-0.73955 -2.27632,-2.24359 -2.27632,-4.22813 0,-2.61297 1.48137,-4.55402 3.6427,-4.77304 2.06318,-0.20907 3.55457,1.15876 3.884,3.56223 l 0.16235,1.18444 h -3.33653 c -3.18477,0 -3.33652,0.0235 -3.33652,0.51616 0,0.86577 0.66186,2.1622 1.40047,2.74319 0.93376,0.7345 2.60426,0.74318 3.52574,0.0183 0.38811,-0.30528 0.85226,-0.46495 1.08831,-0.37437 0.35759,0.13722 0.33409,0.24041 -0.17911,0.78669 -0.58056,0.61798 -1.90477,1.13178 -2.92409,1.13457 -0.28472,7.9e-4 -1.02767,-0.25576 -1.651,-0.57008 z m 4.22786,-5.41827 c -0.0848,-0.22098 -0.15418,-0.57267 -0.15418,-0.78154 0,-0.20887 -0.33411,-0.71387 -0.74246,-1.12223 -1.30668,-1.30668 -3.21516,-0.88529 -4.07979,0.9008 -0.28146,0.58142 -0.51175,1.13534 -0.51175,1.23093 0,0.0956 1.26953,0.17381 2.82118,0.17381 2.46818,0 2.80188,-0.0503 2.667,-0.40177 z m 12.53614,5.41827 c -1.46658,-0.73955 -2.27632,-2.24359 -2.27632,-4.22813 0,-2.61297 1.48137,-4.55402 3.6427,-4.77304 2.06318,-0.20907 3.55457,1.15876 3.884,3.56223 l 0.16235,1.18444 h -3.33653 c -3.18477,0 -3.33652,0.0235 -3.33652,0.51616 0,0.86577 0.66186,2.1622 1.40047,2.74319 0.93376,0.7345 2.60426,0.74318 3.52574,0.0183 0.38811,-0.30528 0.85226,-0.46495 1.08831,-0.37437 0.35759,0.13722 0.33409,0.24041 -0.17911,0.78669 -0.58056,0.61798 -1.90477,1.13178 -2.92409,1.13457 -0.28472,7.9e-4 -1.02767,-0.25576 -1.651,-0.57008 z m 4.22786,-5.41827 c -0.0848,-0.22098 -0.15418,-0.57267 -0.15418,-0.78154 0,-0.20887 -0.33411,-0.71387 -0.74246,-1.12223 -1.30668,-1.30668 -3.21516,-0.88529 -4.07979,0.9008 -0.28146,0.58142 -0.51175,1.13534 -0.51175,1.23093 0,0.0956 1.26953,0.17381 2.82118,0.17381 2.46818,0 2.80188,-0.0503 2.667,-0.40177 z m 8.22782,5.43461 c -3.0896,-1.58897 -3.09571,-6.96915 -0.01,-8.52534 1.94354,-0.98007 3.70277,-0.59491 4.98978,1.09245 0.61414,0.80519 0.74358,1.24347 0.82121,2.78064 0.0743,1.4713 -0.0101,2.02527 -0.43583,2.85971 -1.07497,2.10712 -3.30511,2.85218 -5.36548,1.79254 z m 3.42553,-1.01149 c 0.89855,-0.7068 1.40047,-1.92205 1.40047,-3.39081 0,-3.14687 -2.94908,-4.84426 -4.94637,-2.84697 -2.20943,2.20943 -0.96916,6.78843 1.83872,6.78843 0.64854,0 1.2564,-0.19606 1.70718,-0.55065 z m 15.61479,0.99515 c -1.46658,-0.73955 -2.27632,-2.24359 -2.27632,-4.22813 0,-2.61297 1.48137,-4.55402 3.6427,-4.77304 2.06318,-0.20907 3.55457,1.15876 3.884,3.56223 l 0.16235,1.18444 h -3.33653 c -3.18477,0 -3.33652,0.0235 -3.33652,0.51616 0,0.86577 0.66186,2.1622 1.40047,2.74319 0.93376,0.7345 2.60426,0.74318 3.52574,0.0183 0.38811,-0.30528 0.85226,-0.46495 1.08831,-0.37437 0.35759,0.13722 0.33409,0.24041 -0.17911,0.78669 -0.58056,0.61798 -1.90477,1.13178 -2.92409,1.13457 -0.28472,7.9e-4 -1.02767,-0.25576 -1.651,-0.57008 z m 4.22786,-5.41827 c -0.0848,-0.22098 -0.15418,-0.57267 -0.15418,-0.78154 0,-0.20887 -0.33411,-0.71387 -0.74246,-1.12223 -1.30668,-1.30668 -3.21516,-0.88529 -4.07979,0.9008 -0.28146,0.58142 -0.51175,1.13534 -0.51175,1.23093 0,0.0956 1.26953,0.17381 2.82118,0.17381 2.46818,0 2.80188,-0.0503 2.667,-0.40177 z m 4.77247,5.63998 c -1.43889,-0.65058 -1.99571,-1.78011 -2.08143,-4.22221 -0.0887,-2.5264 0.30996,-3.57124 1.72678,-4.52587 1.08629,-0.73192 2.59742,-0.65556 3.7868,0.19135 l 0.7852,0.55911 v -2.43029 c 0,-2.26097 0.0354,-2.4303 0.508,-2.4303 0.49472,0 0.508,0.16933 0.508,6.477 0,6.30767 -0.0133,6.477 -0.508,6.477 -0.34117,0 -0.508,-0.16933 -0.508,-0.5156 0,-0.51371 -0.003,-0.51364 -0.72301,0.0189 -0.92157,0.68134 -2.47888,0.86 -3.49434,0.40087 z m 2.95244,-1.04984 c 1.04958,-0.54276 1.26491,-1.09954 1.26491,-3.27072 0,-2.20337 -0.32339,-3.09514 -1.30684,-3.6037 -2.22745,-1.15186 -4.02716,0.38905 -4.02716,3.44805 0,3.08524 1.79914,4.6002 4.06909,3.42637 z m 26.74181,1.0956 c -0.85594,-0.41354 -1.0929,-1.51234 -1.0929,-5.06787 v -3.2641 h -0.762 c -0.508,0 -0.762,-0.127 -0.762,-0.381 0,-0.254 0.254,-0.381 0.762,-0.381 0.73378,0 0.762,-0.0423 0.762,-1.143 0,-1.04987 0.0517,-1.143 0.635,-1.143 0.58326,0 0.635,0.0931 0.635,1.143 0,1.13695 0.005,1.143 0.889,1.143 0.62089,0 0.889,0.1149 0.889,0.381 0,0.2661 -0.26811,0.381 -0.889,0.381 h -0.889 v 3.65582 c 0,3.88062 0.0269,3.96418 1.27578,3.96418 0.61691,0 0.91845,0.50326 0.47126,0.78651 -0.45889,0.29065 -1.23012,0.26078 -1.92414,-0.0745 z m 19.2271,-2.48021 c 0,-2.62594 -0.0873,-3.0989 -1.53601,-8.3185 -0.84481,-3.04384 -1.59736,-5.74028 -1.67235,-5.99207 -0.1221,-0.41003 0.0183,-0.4498 1.34552,-0.381 l 1.48184,0.0768 0.87853,4.16666 0.87852,4.16666 0.89948,-4.16666 0.89947,-4.16666 1.48184,-0.0768 c 1.32753,-0.0688 1.46753,-0.0291 1.34436,0.381 -0.0756,0.25179 -0.82817,2.92421 -1.67234,5.9387 -1.45848,5.20815 -1.53486,5.62208 -1.53486,8.3185 v 2.83761 h -1.397 -1.397 z m 24.638,-4.82308 v -7.63268 h -1.397 -1.397 v -1.143 -1.143 h 4.318 4.318 v 1.143 1.143 h -1.39322 -1.39322 l -0.0673,7.5565 -0.0673,7.5565 -1.4605,0.0762 -1.4605,0.0762 z m 14.478,-1.53668 v -9.144 h 1.397 1.397 v 3.1826 3.18261 l 0.77547,-0.57333 c 0.97449,-0.72048 2.52669,-0.76634 3.26682,-0.0965 0.81735,0.73969 1.03476,2.00146 1.03629,6.01425 0.002,3.86501 -0.21084,5.03077 -1.09404,6.0069 -0.74341,0.82163 -2.64352,0.80397 -3.54658,-0.033 l -0.65222,-0.60445 -0.15171,0.60445 c -0.13154,0.52411 -0.303,0.60446 -1.28987,0.60446 h -1.13816 z m 4.6044,6.69218 c 0.42298,-0.50939 0.64362,-6.10083 0.29414,-7.45418 -0.24943,-0.96592 -1.05738,-1.31486 -1.73752,-0.7504 -0.49798,0.41329 -0.54391,8.25669 -0.0495,8.45618 0.62204,0.251 1.14935,0.16213 1.4929,-0.2516 z m -162.5924,-4.05472 v -6.25254 l 2.4765,0.10811 c 2.91967,0.12745 4.27735,0.69065 5.26587,2.18442 1.55977,2.35697 1.33222,6.71427 -0.45199,8.65509 -1.03238,1.12299 -2.37852,1.5458 -4.94088,1.55188 l -2.3495,0.006 z m 5.58563,4.76528 c 0.52079,-0.2793 1.12141,-0.92593 1.47455,-1.5875 0.52438,-0.98237 0.58606,-1.39586 0.51433,-3.44772 -0.0655,-1.87475 -0.1841,-2.46878 -0.6052,-3.03231 -1.04414,-1.39729 -1.77732,-1.73936 -3.93846,-1.8375 l -2.01485,-0.0915 v 5.2339 5.23389 h 1.84546 c 1.31243,0 2.09927,-0.13612 2.72417,-0.47126 z m 16.26208,0.93385 c -0.14073,-0.32428 -0.92999,-2.38982 -1.75391,-4.59009 -1.43741,-3.8386 -1.4754,-4.0005 -0.93873,-4.0005 0.49156,0 0.72325,0.46241 1.91284,3.81761 0.74445,2.09968 1.37881,3.7856 1.40969,3.7465 0.0309,-0.0391 0.66142,-1.75703 1.4012,-3.81761 1.07273,-2.98796 1.44003,-3.7465 1.81413,-3.7465 0.25799,0 0.46907,0.0999 0.46907,0.22199 0,0.12209 -0.72637,2.15092 -1.61415,4.5085 -1.65249,4.38831 -2.15754,5.11033 -2.70014,3.8601 z m 14.98229,-5.92359 c 0,-6.30767 0.0133,-6.477 0.508,-6.477 0.49472,0 0.508,0.16933 0.508,6.477 0,6.30767 -0.0133,6.477 -0.508,6.477 -0.49472,0 -0.508,-0.16933 -0.508,-6.477 z m 45.37389,2.26186 c -0.67115,-2.32967 -1.28398,-4.40177 -1.36184,-4.60467 -0.10377,-0.27044 0.0186,-0.34598 0.45849,-0.28304 0.54212,0.0776 0.69821,0.44086 1.61689,3.76337 l 1.01684,3.67752 1.16487,-3.67752 c 1.59674,-5.04096 1.77464,-5.04876 3.28591,-0.14408 0.62356,2.02369 1.19453,3.61871 1.26884,3.54448 0.0743,-0.0742 0.54444,-1.69712 1.04474,-3.60644 0.79284,-3.02575 0.98036,-3.4819 1.4605,-3.55265 0.30298,-0.0446 0.55087,-0.0351 0.55087,0.0212 0,0.0563 -0.5715,2.07225 -1.27,4.47982 -0.6985,2.40757 -1.27,4.42683 -1.27,4.48725 0,0.0604 -0.22489,0.10985 -0.49975,0.10985 -0.42002,0 -0.69166,-0.59763 -1.70287,-3.7465 l -1.20314,-3.7465 -1.18879,3.683 c -1.65371,5.12333 -1.78335,5.10775 -3.37156,-0.40514 z m 12.53811,-0.35686 c 0,-4.40267 0.0188,-4.572 0.508,-4.572 0.48919,0 0.508,0.16933 0.508,4.572 0,4.40267 -0.0188,4.572 -0.508,4.572 -0.48919,0 -0.508,-0.16933 -0.508,-4.572 z m 8.636,-1.905 c 0,-6.30767 0.0133,-6.477 0.508,-6.477 0.47443,0 0.508,0.16933 0.508,2.56258 v 2.56258 l 0.76948,-0.64747 c 0.96413,-0.81127 2.2305,-1.06076 3.40938,-0.6717 1.45234,0.47932 1.73527,1.31692 1.86749,5.52851 l 0.11363,3.6195 h -0.66699 -0.66699 v -3.683 c 0,-3.34433 -0.0467,-3.72971 -0.508,-4.191 -0.62099,-0.62099 -2.18254,-0.6792 -2.99294,-0.11158 -1.08441,0.75955 -1.32506,1.654 -1.32506,4.92497 0,2.89128 -0.0281,3.06061 -0.508,3.06061 -0.49472,0 -0.508,-0.16933 -0.508,-6.477 z m -8.79348,-5.06784 c -0.19382,-0.50509 0.0933,-0.90116 0.6533,-0.90116 0.49931,0 0.76875,0.43603 0.5886,0.9525 -0.15279,0.43801 -1.06865,0.40015 -1.2419,-0.0513 z"
         id="path3937"
         inkscape:connector-curvature="0" />
      <path
         style="fill:#d8d8d8;stroke-width:0.25400001"
         d="m 191.33457,251.55215 c 0,-6.18067 0.0135,-6.35 0.508,-6.35 0.37253,0 0.508,0.16933 0.508,0.635 0,0.6279 0.005,0.6295 0.49151,0.14349 1.13648,-1.13647 3.68505,-1.15512 4.69931,-0.0344 1.03683,1.1457 1.45367,3.90037 0.89472,5.91289 -0.14389,0.5181 -0.60924,1.28963 -1.03412,1.7145 -0.66194,0.66195 -0.96054,0.77236 -2.08646,0.77155 -0.86145,-6.3e-4 -1.59825,-0.17428 -2.13946,-0.50427 l -0.8255,-0.50331 v 2.28226 c 0,2.11294 -0.0377,2.28227 -0.508,2.28227 -0.49445,0 -0.508,-0.16933 -0.508,-6.35 z m 5.42019,1.36853 c 0.78806,-0.78806 1.02882,-1.85985 0.87998,-3.91749 -0.0896,-1.23852 -0.24303,-1.6548 -0.83942,-2.2773 -1.03045,-1.07556 -2.63764,-1.08393 -3.70229,-0.0193 -0.71628,0.71628 -0.74246,0.82745 -0.74246,3.15242 0,2.37927 0.01,2.41833 0.78149,3.06754 1.0922,0.91902 2.70041,0.91641 3.6227,-0.006 z m 71.0583,1.35823 c -1.56885,-0.80626 -2.19937,-3.1064 -1.97515,-7.20527 0.16492,-3.01466 0.58879,-4.20813 1.74487,-4.91298 1.02419,-0.62442 3.19375,-0.68995 4.2781,-0.12921 1.41678,0.73265 1.64269,1.57038 1.64269,6.0917 0,4.52132 -0.22591,5.35905 -1.64269,6.0917 -0.89584,0.46326 -3.20009,0.49972 -4.04782,0.0641 z m 2.51551,-1.70489 c 0.3012,-0.19001 0.39858,-0.96928 0.46495,-3.72076 0.0462,-1.91422 0.0136,-3.85527 -0.0723,-4.31344 -0.18847,-1.00463 -0.99979,-1.37937 -1.62745,-0.7517 -0.34933,0.34932 -0.41618,1.04085 -0.41618,4.30506 0,2.92279 0.0866,3.99324 0.3486,4.30893 0.39399,0.47473 0.74826,0.52149 1.3024,0.17191 z m 5.87029,1.58163 c -0.78728,-0.6529 -1.04429,-2.55244 -1.04429,-7.71817 v -4.53733 h 1.397 1.397 v 4.54025 c 0,2.49714 0.07,4.89013 0.1555,5.31776 0.19123,0.95615 0.74045,1.20108 1.53129,0.6829 0.59652,-0.39085 0.59921,-0.41545 0.59921,-5.46677 v -5.07414 h 1.397 1.397 v 6.223 6.223 h -1.143 c -0.96208,0 -1.143,-0.078 -1.143,-0.49301 0,-0.64331 -0.46711,-0.92509 -0.66757,-0.40269 -0.40593,1.05782 -2.90311,1.51215 -3.87614,0.7052 z m 14.732,0 c -0.78728,-0.6529 -1.04429,-2.55244 -1.04429,-7.71817 v -4.53733 h 1.397 1.397 v 4.54025 c 0,2.49714 0.07,4.89013 0.1555,5.31776 0.19123,0.95615 0.74045,1.20108 1.53129,0.6829 0.59652,-0.39085 0.59921,-0.41545 0.59921,-5.46677 v -5.07414 h 1.397 1.397 v 6.223 6.223 h -1.143 c -0.96208,0 -1.143,-0.078 -1.143,-0.49301 0,-0.64331 -0.46711,-0.92509 -0.66757,-0.40269 -0.40593,1.05782 -2.90311,1.51215 -3.87614,0.7052 z m 11.94836,-0.19695 c -0.74299,-0.62519 -0.76646,-0.62841 -0.9256,-0.127 -0.13161,0.41467 -0.38165,0.51445 -1.28917,0.51445 h -1.12588 v -8.89 -8.89 h 1.27 1.27 v 3.175 c 0,1.74625 0.0513,3.175 0.11391,3.175 0.0627,0 0.42225,-0.28575 0.79909,-0.635 0.51275,-0.47519 0.9635,-0.635 1.79109,-0.635 2.21309,0 2.72762,1.39095 2.5823,6.98085 -0.10467,4.02657 -0.38902,5.13721 -1.46232,5.71162 -0.88132,0.47167 -2.20975,0.30474 -3.02342,-0.37992 z m 1.4605,-2.19045 c 0.34667,-0.99445 0.36806,-6.55238 0.0287,-7.44507 -0.37778,-0.99364 -0.9994,-1.10089 -1.69484,-0.2924 -0.56047,0.65159 -0.59497,0.89068 -0.59497,4.12323 0,1.88735 0.11832,3.65262 0.26294,3.92284 0.16609,0.31035 0.53114,0.4913 0.99115,0.4913 0.58843,0 0.78174,-0.15354 1.00706,-0.7999 z m 6.14154,2.28265 c -1.25144,-0.85573 -1.50314,-1.83545 -1.52537,-5.93743 -0.0174,-3.21512 0.0369,-3.67702 0.55218,-4.69814 0.68578,-1.3589 1.40523,-1.76046 3.16305,-1.76544 2.76143,-0.008 3.42688,0.87579 3.58383,4.75876 l 0.10524,2.6035 h -2.44181 -2.44181 l 0.004,1.2065 c 0.004,1.36239 0.44589,2.43384 1.05131,2.55044 0.61179,0.11781 1.23096,-0.6461 1.23096,-1.51871 0,-0.67817 0.0704,-0.75461 0.5715,-0.62032 0.31432,0.0842 0.90043,0.15471 1.30246,0.15662 0.71691,0.003 0.7277,0.0242 0.56115,1.08297 -0.10973,0.69753 -0.43307,1.34469 -0.91382,1.82898 -0.6343,0.63895 -0.97924,0.76396 -2.33915,0.84775 -1.35274,0.0833 -1.72709,0.008 -2.46345,-0.49548 z m 3.25599,-7.89625 c -0.0399,-2.10217 -0.25513,-2.6035 -1.11768,-2.6035 -0.57193,0 -0.77905,0.14362 -0.91573,0.635 -0.23365,0.83999 -0.27209,2.91851 -0.0579,3.13267 0.0931,0.0931 0.60749,0.16933 1.143,0.16933 h 0.97367 z m -172.18668,2.12504 v -6.12554 h 2.42116 c 2.81314,0 3.72566,0.30124 4.87385,1.60895 1.09738,1.24985 1.41349,2.47502 1.30526,5.05888 -0.081,1.93408 -0.17687,2.30001 -0.85327,3.25739 -1.13949,1.61283 -2.31015,2.10749 -5.26887,2.22633 l -2.47813,0.0995 z m 4.69603,5.02039 c 2.17936,-0.60503 3.4438,-3.15675 3.04565,-6.14631 -0.39188,-2.94239 -1.8953,-4.23762 -4.91876,-4.23762 h -1.80692 v 5.334 5.334 l 1.3335,-0.001 c 0.73342,-7.9e-4 1.78936,-0.12797 2.34653,-0.28265 z m 8.13097,0.80236 c -1.27724,-0.53179 -2.4146,-2.50114 -2.41158,-4.17569 0.01,-5.30792 6.39695,-6.77891 7.36105,-1.69522 0.14164,0.74688 0.25753,1.39951 0.25753,1.45029 0,0.0508 -1.4859,0.0923 -3.302,0.0923 h -3.302 v 0.64761 c 0,0.87051 0.60407,1.98529 1.42618,2.63196 0.90602,0.71268 2.68014,0.71575 3.67638,0.006 0.81084,-0.57737 1.4851,-0.44935 0.96077,0.18242 -0.81367,0.98042 -3.28369,1.4356 -4.66633,0.85993 z m 4.191,-5.4964 c 0,-0.73463 -0.77348,-2.05419 -1.40092,-2.38999 -0.81965,-0.43866 -2.04683,-0.38125 -2.8308,0.13242 -0.57956,0.37975 -1.35628,1.75505 -1.35628,2.40152 0,0.16432 1.0427,0.26216 2.794,0.26216 2.39101,0 2.794,-0.0586 2.794,-0.40611 z m 4.85632,5.16861 c -0.11611,-0.31433 -0.8676,-2.32225 -1.66999,-4.46205 -0.80239,-2.13981 -1.3953,-3.95415 -1.31757,-4.03188 0.43581,-0.43581 0.96648,0.48169 2.0342,3.51697 0.65576,1.8642 1.28685,3.54125 1.40241,3.72678 0.13769,0.22105 0.68224,-0.98198 1.57987,-3.49028 1.05552,-2.94952 1.47173,-3.82812 1.81426,-3.82983 0.24447,-0.001 0.4445,0.0508 0.4445,0.11565 0,0.0982 -2.60966,7.13978 -3.1804,8.58164 -0.24676,0.62339 -0.8559,0.55353 -1.10728,-0.127 z m 7.71668,0.32779 c -1.27724,-0.53179 -2.4146,-2.50114 -2.41158,-4.17569 0.01,-5.30792 6.39695,-6.77891 7.36105,-1.69522 0.14164,0.74688 0.25753,1.39951 0.25753,1.45029 0,0.0508 -1.4859,0.0923 -3.302,0.0923 h -3.302 v 0.64761 c 0,0.87051 0.60407,1.98529 1.42618,2.63196 0.90602,0.71268 2.68014,0.71575 3.67638,0.006 0.81084,-0.57737 1.4851,-0.44935 0.96077,0.18242 -0.81367,0.98042 -3.28369,1.4356 -4.66633,0.85993 z m 4.191,-5.4964 c 0,-0.73463 -0.77348,-2.05419 -1.40092,-2.38999 -0.81965,-0.43866 -2.04683,-0.38125 -2.8308,0.13242 -0.57956,0.37975 -1.35628,1.75505 -1.35628,2.40152 0,0.16432 1.0427,0.26216 2.794,0.26216 2.39101,0 2.794,-0.0586 2.794,-0.40611 z m 3.048,-0.73689 c 0,-6.30767 0.0133,-6.477 0.508,-6.477 0.49472,0 0.508,0.16933 0.508,6.477 0,6.30767 -0.0133,6.477 -0.508,6.477 -0.49472,0 -0.508,-0.16933 -0.508,-6.477 z m 4.33327,5.57158 c -1.30445,-1.17849 -1.77773,-2.97873 -1.31453,-5.00008 0.3293,-1.43702 0.7853,-2.12803 1.87583,-2.84258 0.95867,-0.62814 2.91746,-0.62496 4.01699,0.007 1.88019,1.07983 2.59579,4.32401 1.46777,6.65419 -0.72448,1.49657 -1.73568,2.08523 -3.5841,2.08643 -1.31721,8.6e-4 -1.55764,-0.0875 -2.46196,-0.90447 z m 4.04273,-0.10737 c 0.93697,-0.50145 1.53,-1.87289 1.53,-3.5383 0,-1.70526 -0.42353,-2.80303 -1.32506,-3.43449 -0.76413,-0.53521 -2.71803,-0.50443 -3.41002,0.0537 -1.86235,1.50217 -1.7877,5.37855 0.13173,6.83978 0.49722,0.37852 2.42146,0.42816 3.07335,0.0793 z m 15.881,0.76908 c -1.27724,-0.53179 -2.4146,-2.50114 -2.41158,-4.17569 0.01,-5.30792 6.39695,-6.77891 7.36105,-1.69522 0.14164,0.74688 0.25753,1.39951 0.25753,1.45029 0,0.0508 -1.4859,0.0923 -3.302,0.0923 h -3.302 v 0.64761 c 0,0.87051 0.60407,1.98529 1.42618,2.63196 0.90602,0.71268 2.68014,0.71575 3.67638,0.006 0.81084,-0.57737 1.4851,-0.44935 0.96077,0.18242 -0.81367,0.98042 -3.28369,1.4356 -4.66633,0.85993 z m 4.191,-5.4964 c 0,-0.73463 -0.77348,-2.05419 -1.40092,-2.38999 -0.81965,-0.43866 -2.04683,-0.38125 -2.8308,0.13242 -0.57956,0.37975 -1.35628,1.75505 -1.35628,2.40152 0,0.16432 1.0427,0.26216 2.794,0.26216 2.39101,0 2.794,-0.0586 2.794,-0.40611 z m 3.96121,5.1053 c -0.96797,-0.89709 -1.42121,-2.15269 -1.42121,-3.93719 0,-1.5723 0.45655,-3.05148 1.19302,-3.86528 1.00358,-1.10893 3.33355,-1.06119 4.56265,0.0935 l 0.59433,0.55834 v -2.58427 c 0,-2.1278 0.0673,-2.58428 0.381,-2.58428 0.32871,0 0.381,0.889 0.381,6.477 0,5.588 -0.0523,6.477 -0.381,6.477 -0.21664,0 -0.381,-0.22808 -0.381,-0.52872 v -0.52871 l -0.85548,0.52871 c -1.2571,0.77694 -3.17439,0.727 -4.07331,-0.10609 z m 4.18633,-0.86965 c 0.71247,-0.71247 0.74246,-0.83638 0.74246,-3.06754 0,-2.23116 -0.03,-2.35507 -0.74246,-3.06754 -0.58165,-0.58165 -0.97037,-0.74246 -1.7947,-0.74246 -0.57873,0 -1.283,0.1235 -1.56504,0.27444 -1.61024,0.86178 -1.71069,5.86351 -0.13985,6.96377 0.2998,0.20999 1.04279,0.38179 1.65111,0.38179 0.88377,0 1.25521,-0.14919 1.84848,-0.74246 z m 10.00828,1.18696 c -0.0639,-0.17463 -0.6742,-2.23203 -1.35615,-4.572 -1.10717,-3.79907 -1.19115,-4.2545 -0.78448,-4.2545 0.50549,0 0.54663,0.10667 1.80791,4.68743 l 0.83606,3.03644 1.23086,-3.87682 c 0.97523,-3.07166 1.31684,-3.86025 1.64489,-3.79708 0.29298,0.0564 0.7499,1.17265 1.56271,3.81754 0.63177,2.05579 1.21762,3.65538 1.30189,3.55465 0.0843,-0.10074 0.46465,-1.38331 0.84527,-2.85016 0.38062,-1.46685 0.80426,-3.09563 0.94142,-3.6195 0.18558,-0.70881 0.38226,-0.9525 0.76876,-0.9525 0.30868,0 0.47183,0.1288 0.40216,0.3175 -0.0645,0.17462 -0.67268,2.23202 -1.35159,4.572 -0.91152,3.1417 -1.33733,4.2545 -1.62795,4.2545 -0.28256,0 -0.74908,-1.08429 -1.65407,-3.84441 l -1.26051,-3.84442 -1.22823,3.84442 c -0.83628,2.61759 -1.34542,3.84441 -1.59547,3.84441 -0.20198,0 -0.41955,-0.14288 -0.48348,-0.3175 z m 11.30818,-4.2545 c 0,-4.40267 0.0188,-4.572 0.508,-4.572 0.48919,0 0.508,0.16933 0.508,4.572 0,4.40267 -0.0188,4.572 -0.508,4.572 -0.48919,0 -0.508,-0.16933 -0.508,-4.572 z m 4.48437,4.1075 c -0.35095,-0.38779 -0.42037,-1.0799 -0.42037,-4.191 v -3.7265 h -0.889 c -0.62089,0 -0.889,-0.1149 -0.889,-0.381 0,-0.2661 0.26811,-0.381 0.889,-0.381 0.8843,0 0.889,-0.006 0.889,-1.143 0,-0.84667 0.0988,-1.143 0.381,-1.143 0.28222,0 0.381,0.29633 0.381,1.143 v 1.143 h 1.016 c 0.73378,0 1.016,0.10583 1.016,0.381 0,0.27517 -0.28222,0.381 -1.016,0.381 h -1.016 v 3.3187 c 0,1.82528 0.11832,3.53978 0.26294,3.81 0.16919,0.31614 0.53142,0.4913 1.016,0.4913 0.50005,0 0.75306,0.128 0.75306,0.381 0,0.57312 -1.83791,0.50846 -2.37363,-0.0835 z m 4.15163,-6.0125 c 0,-6.30767 0.0133,-6.477 0.508,-6.477 0.47642,0 0.508,0.16933 0.508,2.72352 0,2.47124 0.0347,2.67403 0.37417,2.18931 0.53405,-0.76246 2.18678,-1.36271 3.26869,-1.18714 0.49408,0.0802 1.16244,0.42657 1.48524,0.76975 0.55225,0.58714 0.5917,0.85522 0.66828,4.54127 0.0712,3.42529 0.0313,3.91729 -0.3175,3.91729 -0.34163,0 -0.39894,-0.46482 -0.39927,-3.2385 -5.1e-4,-4.2312 -0.30988,-4.97949 -2.10614,-5.09437 -1.09848,-0.0703 -1.30339,0.008 -2.0955,0.8001 l -0.87797,0.87797 v 3.3274 c 0,3.15807 -0.0258,3.3274 -0.508,3.3274 -0.49472,0 -0.508,-0.16933 -0.508,-6.477 z m 15.4832,3.6195 c -0.0103,-2.71882 -0.0886,-3.13486 -1.61304,-8.5725 l -1.60223,-5.715 1.26012,-0.0778 c 0.69307,-0.0428 1.3221,-0.0158 1.39785,0.06 0.0758,0.0757 0.52467,1.99152 0.9976,4.25727 0.47293,2.26575 0.89253,4.1522 0.93245,4.19212 0.0399,0.0399 0.46061,-1.76027 0.93486,-4.00041 0.47425,-2.24014 0.93383,-4.18874 1.02128,-4.33024 0.0874,-0.14149 0.73081,-0.22209 1.4297,-0.17911 l 1.27071,0.0781 -1.60918,5.715 c -1.53974,5.46834 -1.60933,5.83833 -1.61226,8.5725 l -0.003,2.8575 h -1.397 -1.397 l -0.0108,-2.8575 z m 24.9028,-4.6355 v -7.493 h -1.524 -1.524 v -1.143 -1.143 h 4.191 4.191 v 1.143 1.143 h -1.397 -1.397 v 7.493 7.493 h -1.27 -1.27 z m -49.1835,-4.0623 c -0.088,-0.22927 -0.0382,-0.53864 0.1107,-0.6875 0.387,-0.387 1.12024,-0.0333 1.01915,0.49161 -0.11259,0.58468 -0.9265,0.72579 -1.12985,0.19589 z"
         id="path3935"
         inkscape:connector-curvature="0" />
      <path
         style="fill:#c7c7c7;stroke-width:0.25400001"
         d="m 191.58857,251.55215 c 0,-5.47511 0.0525,-6.35 0.381,-6.35 0.24056,0 0.381,0.2424 0.381,0.65758 v 0.65758 l 0.78149,-0.65758 c 1.5039,-1.26545 4.09435,-0.7391 4.9194,0.99956 1.0465,2.20533 0.71194,5.18883 -0.74525,6.64602 -0.71486,0.71486 -1.02092,0.84084 -2.04276,0.84084 -0.7743,0 -1.50628,-0.18811 -2.0574,-0.52872 l -0.85548,-0.52871 v 2.30671 c 0,1.88108 -0.0703,2.30672 -0.381,2.30672 -0.32851,0 -0.381,-0.87489 -0.381,-6.35 z m 4.4623,1.91414 c 1.13261,-0.47323 1.69524,-1.7448 1.69637,-3.83386 0.001,-1.91843 -0.55579,-3.07386 -1.71474,-3.5581 -1.08726,-0.45428 -2.21793,-0.2349 -3.04332,0.59048 -0.59383,0.59383 -0.63861,0.81033 -0.63861,3.08746 0,2.77242 0.27263,3.42117 1.59888,3.80466 1.1242,0.32506 1.10446,0.32592 2.10142,-0.0906 z m 71.4837,0.57533 c -1.28336,-0.87054 -1.58858,-1.99725 -1.60332,-5.91847 -0.0106,-2.82024 0.0651,-3.47539 0.51919,-4.49047 0.64487,-1.44166 1.57244,-1.98653 3.38183,-1.98653 2.80213,0 3.60668,1.22255 3.75468,5.70545 0.17929,5.43073 -0.60772,7.01245 -3.58029,7.19554 -1.34427,0.0828 -1.7172,0.007 -2.47209,-0.50552 z m 3.03906,-1.71077 c 0.34386,-0.6425 0.34386,-7.7729 0,-8.4154 -0.3222,-0.60203 -1.07807,-0.63684 -1.54746,-0.0713 -0.26174,0.31538 -0.3486,1.38157 -0.3486,4.27896 0,2.89739 0.0869,3.96358 0.3486,4.27896 0.46939,0.56558 1.22526,0.53077 1.54746,-0.0713 z m 5.9091,2.0993 c -0.90568,-0.3644 -1.07416,-1.47115 -1.07416,-7.05639 v -5.47361 h 1.27 1.27 v 5.03145 c 0,3.98792 0.0761,5.13372 0.36666,5.5245 0.34051,0.45789 0.41749,0.4652 1.0795,0.10253 l 0.71284,-0.39052 0.0688,-5.13398 0.0688,-5.13398 h 1.39174 1.39174 v 6.223 6.223 h -1.143 c -1.0281,0 -1.143,-0.0596 -1.143,-0.59267 0,-0.92651 -0.20647,-0.92806 -1.12607,-0.008 -0.68745,0.68745 -1.04689,0.8512 -1.83303,0.83508 -0.53784,-0.011 -1.12318,-0.0785 -1.30074,-0.14995 z m 14.732,0 c -0.90568,-0.3644 -1.07416,-1.47115 -1.07416,-7.05639 v -5.47361 h 1.27 1.27 v 5.03145 c 0,3.98792 0.0761,5.13372 0.36666,5.5245 0.34051,0.45789 0.41749,0.4652 1.0795,0.10253 l 0.71284,-0.39052 0.0688,-5.13398 0.0688,-5.13398 h 1.39174 1.39174 v 6.223 6.223 h -1.143 c -1.0281,0 -1.143,-0.0596 -1.143,-0.59267 0,-0.92651 -0.20647,-0.92806 -1.12607,-0.008 -0.68745,0.68745 -1.04689,0.8512 -1.83303,0.83508 -0.53785,-0.011 -1.12318,-0.0785 -1.30074,-0.14995 z m 12.38784,-0.009 c -0.20955,-0.0766 -0.64258,-0.3774 -0.96229,-0.66843 l -0.5813,-0.52914 -0.14683,0.56147 c -0.12332,0.47158 -0.3251,0.56148 -1.2602,0.56148 h -1.11338 v -8.89 -8.89 h 1.27 1.27 v 3.32831 3.32831 l 0.89784,-0.78831 c 0.66653,-0.58522 1.1459,-0.78831 1.86072,-0.78831 2.03116,0 2.69461,1.89237 2.52773,7.20986 -0.078,2.48566 -0.21727,3.56396 -0.54866,4.24845 -0.60615,1.25201 -1.91876,1.78965 -3.21363,1.31631 z m 0.39595,-1.95861 c 0.44288,-0.32335 0.50129,-0.74475 0.57408,-4.14121 0.0728,-3.39538 0.0323,-3.84143 -0.39677,-4.37128 -0.58563,-0.72322 -1.37799,-0.55625 -1.80471,0.38031 -0.1759,0.38604 -0.29255,2.04955 -0.29255,4.17172 0,3.3595 0.0272,3.54871 0.56452,3.92505 0.69023,0.48346 0.74,0.48476 1.35543,0.0354 z m 6.79599,1.76622 c -1.48198,-0.64456 -1.73094,-1.52265 -1.73094,-6.10523 0,-3.40613 0.0726,-4.19693 0.4488,-4.8852 0.6532,-1.19521 1.73833,-1.6692 3.52545,-1.53993 2.4865,0.17986 3.26475,1.46582 3.26475,5.39461 v 1.91952 h -2.413 -2.413 l 0.003,1.2065 c 0.005,1.73136 0.22573,2.3336 0.91919,2.50764 0.79977,0.20073 1.36336,-0.2975 1.36336,-1.20524 0,-0.70987 0.0374,-0.7309 1.29827,-0.7309 h 1.29827 l -0.17406,0.9525 c -0.0957,0.52387 -0.34595,1.21922 -0.55603,1.54522 -0.77254,1.19878 -3.16883,1.66496 -4.83451,0.94051 z m 2.96806,-8.12069 c 0,-1.90477 -0.3317,-2.68354 -1.143,-2.68354 -0.8113,0 -1.143,0.77877 -1.143,2.68354 v 1.38046 h 1.143 1.143 z m -172.212,2.17642 v -6.12996 h 2.42312 c 2.72875,0 3.87535,0.4047 5.02817,1.77475 0.85366,1.01452 1.18155,2.25088 1.18329,4.46188 0.002,2.42164 -0.83362,4.15505 -2.46312,5.11 -0.96968,0.56827 -1.531,0.68983 -3.65844,0.79228 l -2.51302,0.12101 z m 4.80485,5.05211 c 2.01587,-0.57815 2.91652,-2.14086 2.93131,-5.08607 0.0128,-2.55607 -0.46462,-3.76468 -1.86242,-4.71451 -0.77297,-0.52524 -1.21183,-0.61949 -2.8847,-0.61949 h -1.97304 v 5.334 5.334 h 1.46218 c 0.80419,0 1.8512,-0.11157 2.32667,-0.24793 z m 7.62895,0.43757 c -1.34868,-0.90887 -1.8958,-2.07622 -1.8746,-3.99964 0.0197,-1.78757 0.41163,-2.79113 1.47971,-3.78894 0.87288,-0.81545 3.14066,-1.04751 4.09918,-0.41946 0.97628,0.63969 1.63988,1.905 1.64096,3.1289 l 9.5e-4,1.0795 h -3.175 -3.175 l 0.002,0.8255 c 0.002,0.92307 0.64374,2.0421 1.52565,2.65982 0.84485,0.59176 2.64654,0.52678 3.53131,-0.12736 0.66981,-0.49522 1.03736,-0.50739 1.03736,-0.0343 0,0.10502 -0.38497,0.42887 -0.85548,0.71966 -1.19006,0.7355 -3.10991,0.71572 -4.23672,-0.0436 z m 4.48526,-5.57386 c -0.25019,-1.25091 -0.82268,-1.93311 -1.89079,-2.25313 -1.21491,-0.36399 -2.35235,0.1361 -3.10055,1.36318 -0.97551,1.59989 -0.83562,1.70217 2.32803,1.70217 h 2.82575 z m 5.05734,5.70172 c -0.62766,-1.58567 -3.1804,-8.48863 -3.1804,-8.60026 0,-0.0751 0.18777,-0.0995 0.41726,-0.0544 0.28354,0.0558 0.83666,1.24805 1.726,3.72033 0.7198,2.00102 1.41786,3.61442 1.55124,3.58533 0.13337,-0.0291 0.814,-1.66485 1.5125,-3.63503 0.96747,-2.72885 1.38471,-3.60418 1.75156,-3.67459 0.38017,-0.073 0.44203,0.007 0.29381,0.37782 -0.10326,0.25864 -0.87653,2.32764 -1.71838,4.59776 -1.46691,3.95562 -1.9478,4.70815 -2.35359,3.683 z m 7.2214,-0.12786 c -1.34868,-0.90887 -1.8958,-2.07622 -1.8746,-3.99964 0.0197,-1.78757 0.41163,-2.79113 1.47971,-3.78894 0.87288,-0.81545 3.14066,-1.04751 4.09918,-0.41946 0.97629,0.63969 1.63988,1.905 1.64096,3.1289 l 9.5e-4,1.0795 h -3.175 -3.175 l 0.002,0.8255 c 0.002,0.92307 0.64374,2.0421 1.52565,2.65982 0.84486,0.59176 2.64654,0.52678 3.53131,-0.12736 0.66982,-0.49522 1.03736,-0.50739 1.03736,-0.0343 0,0.10502 -0.38496,0.42887 -0.85548,0.71966 -1.19005,0.7355 -3.1099,0.71572 -4.23672,-0.0436 z m 4.48525,-5.57386 c -0.25018,-1.25091 -0.82267,-1.93311 -1.89078,-2.25313 -1.21491,-0.36399 -2.35235,0.1361 -3.10055,1.36318 -0.97551,1.59989 -0.83562,1.70217 2.32803,1.70217 h 2.82575 z m 3.14695,-0.33078 c 0,-5.588 0.0523,-6.477 0.381,-6.477 0.32871,0 0.381,0.889 0.381,6.477 0,5.588 -0.0523,6.477 -0.381,6.477 -0.32871,0 -0.381,-0.889 -0.381,-6.477 z m 4.83973,5.92712 c -1.36163,-0.92539 -1.89728,-2.06097 -1.89061,-4.00813 0.006,-1.8051 0.38758,-2.79192 1.46979,-3.80293 0.90323,-0.8438 3.1781,-1.04775 4.39242,-0.39379 2.43735,1.3126 2.82676,5.69064 0.69034,7.76134 -0.72728,0.70491 -1.08587,0.84937 -2.32335,0.93596 -1.22041,0.0854 -1.60861,0.004 -2.33859,-0.49245 z m 3.71421,-0.59921 c 0.88205,-0.57794 1.43063,-1.87079 1.45263,-3.4234 0.0249,-1.76052 -0.64365,-2.99739 -1.97395,-3.65178 -1.27476,-0.62707 -2.66303,-0.26184 -3.50633,0.92246 -0.80631,1.13236 -0.94524,3.75925 -0.26527,5.01581 0.8866,1.63843 2.76733,2.13652 4.29292,1.13691 z m 15.30986,0.57673 c -1.34868,-0.90887 -1.8958,-2.07622 -1.8746,-3.99964 0.0197,-1.78757 0.41163,-2.79113 1.47971,-3.78894 0.87288,-0.81545 3.14066,-1.04751 4.09918,-0.41946 0.97629,0.63969 1.63988,1.905 1.64096,3.1289 l 9.5e-4,1.0795 h -3.175 -3.175 l 0.002,0.8255 c 0.002,0.92307 0.64374,2.0421 1.52565,2.65982 0.84486,0.59176 2.64654,0.52678 3.53131,-0.12736 0.66982,-0.49522 1.03736,-0.50739 1.03736,-0.0343 0,0.10502 -0.38496,0.42887 -0.85548,0.71966 -1.19005,0.7355 -3.1099,0.71572 -4.23672,-0.0436 z m 4.48525,-5.57386 c -0.25018,-1.25091 -0.82267,-1.93311 -1.89078,-2.25313 -1.21491,-0.36399 -2.35235,0.1361 -3.10055,1.36318 -0.97551,1.59989 -0.83562,1.70217 2.32803,1.70217 h 2.82575 z m 4.07879,5.38776 c -2.10782,-1.85069 -1.80507,-7.05094 0.47087,-8.08793 1.16681,-0.53163 2.78778,-0.37211 3.6578,0.35997 l 0.78149,0.65758 v -2.56258 c 0,-2.10852 0.0675,-2.56258 0.381,-2.56258 0.32871,0 0.381,0.889 0.381,6.477 0,5.588 -0.0523,6.477 -0.381,6.477 -0.24056,0 -0.381,-0.2424 -0.381,-0.65758 v -0.65758 l -0.78149,0.65758 c -1.15873,0.97501 -2.95323,0.93117 -4.12867,-0.10088 z m 4.31583,-0.80375 c 0.5395,-0.50683 0.59433,-0.77373 0.59433,-2.89281 0,-1.9559 -0.083,-2.44002 -0.51197,-2.98534 -1.21027,-1.53861 -3.57105,-1.3422 -4.46946,0.37185 -0.65087,1.24177 -0.62931,3.89177 0.041,5.03651 0.91286,1.55901 2.95208,1.77944 4.34613,0.46979 z m 9.87059,1.24471 c -0.36857,-1.10602 -2.41826,-8.37829 -2.41826,-8.57993 0,-0.43089 0.72212,-0.2652 0.8626,0.19793 0.0742,0.24447 0.53588,1.9177 1.02606,3.71828 0.49018,1.80058 0.93778,3.32032 0.99467,3.37722 0.0827,0.0827 1.42769,-3.96444 2.31592,-6.9685 0.38989,-1.31863 0.885,-0.55087 2.04748,3.175 0.6429,2.06058 1.20519,3.8608 1.24952,4.0005 0.11012,0.34701 0.21207,0.0247 1.30553,-4.1275 0.76003,-2.88605 1.04179,-3.6195 1.39049,-3.6195 0.38075,0 0.26723,0.58278 -0.87791,4.50674 -0.89766,3.07594 -1.43717,4.53023 -1.69937,4.58072 -0.2888,0.0556 -0.65678,-0.8038 -1.48239,-3.46211 -0.60403,-1.94486 -1.18593,-3.67799 -1.29311,-3.85142 -0.1159,-0.18752 -0.68704,1.24207 -1.40923,3.52738 -0.78334,2.4788 -1.33713,3.84269 -1.56028,3.84269 -0.19026,0 -0.39353,-0.14288 -0.45172,-0.3175 z m 11.29774,-4.2545 c 0,-3.89467 0.0564,-4.572 0.381,-4.572 0.32456,0 0.381,0.67733 0.381,4.572 0,3.89467 -0.0564,4.572 -0.381,4.572 -0.32456,0 -0.381,-0.67733 -0.381,-4.572 z m 4.4594,4.00748 c -0.31305,-0.44694 -0.3954,-1.31984 -0.3954,-4.191 v -3.62648 h -0.889 c -0.62089,0 -0.889,-0.1149 -0.889,-0.381 0,-0.2661 0.26811,-0.381 0.889,-0.381 0.8843,0 0.889,-0.006 0.889,-1.143 0,-0.84667 0.0988,-1.143 0.381,-1.143 0.28222,0 0.381,0.29633 0.381,1.143 v 1.143 h 1.016 c 0.73378,0 1.016,0.10583 1.016,0.381 0,0.27517 -0.28222,0.381 -1.016,0.381 h -1.016 v 3.3187 c 0,1.82528 0.11832,3.53978 0.26294,3.81 0.16919,0.31614 0.53142,0.4913 1.016,0.4913 0.50005,0 0.75306,0.128 0.75306,0.381 0,0.65101 -1.9168,0.50435 -2.3986,-0.18352 z m 4.4306,-5.91248 c 0,-5.588 0.0523,-6.477 0.381,-6.477 0.31471,0 0.381,0.46859 0.381,2.69331 v 2.69331 l 0.89784,-0.78831 c 0.72169,-0.63365 1.12362,-0.78831 2.0487,-0.78831 2.49149,0 2.89546,0.77786 2.89546,5.57539 0,2.92072 -0.0658,3.56861 -0.36226,3.56861 -0.2931,0 -0.37796,-0.6982 -0.4445,-3.65714 -0.0704,-3.13193 -0.14986,-3.73175 -0.55308,-4.17661 -0.67361,-0.74317 -1.75789,-0.91352 -2.76691,-0.43471 -1.46012,0.69287 -1.71525,1.44688 -1.71525,5.06915 0,2.6745 -0.0625,3.19931 -0.381,3.19931 -0.32871,0 -0.381,-0.889 -0.381,-6.477 z m 15.23881,3.6195 c -10e-4,-2.73085 -0.0726,-3.11362 -1.61158,-8.636 l -1.61039,-5.7785 h 1.33004 c 1.16769,0 1.34747,0.0698 1.47275,0.5715 0.0785,0.31433 0.43637,2.00025 0.79529,3.7465 0.89089,4.3344 0.90499,4.39276 1.03072,4.26703 0.061,-0.061 0.33302,-1.18892 0.60448,-2.50647 0.27147,-1.31756 0.68235,-3.22424 0.91309,-4.23706 l 0.41951,-1.8415 h 1.33831 1.33831 l -1.60557,5.6515 c -1.55438,5.47128 -1.60581,5.74667 -1.61268,8.636 l -0.007,2.9845 h -1.397 -1.397 l -0.001,-2.8575 z m 24.89319,-4.6355 v -7.493 h -1.524 -1.524 v -1.143 -1.143 h 4.191 4.191 v 1.143 1.143 h -1.397 -1.397 v 7.493 7.493 h -1.27 -1.27 z m -49.09354,-4.01106 c -0.0745,-0.19416 -0.0433,-0.50217 0.0694,-0.68449 0.28492,-0.46102 1.07493,-0.10499 0.97048,0.43736 -0.10559,0.54833 -0.85589,0.72663 -1.03989,0.24713 z"
         id="path3933"
         inkscape:connector-curvature="0" />
      <path
         style="fill:#afafaf;stroke-width:0.25400001"
         d="m 191.58857,251.42515 c 0,-3.89876 0.0931,-6.223 0.24916,-6.223 0.13704,0 0.32083,0.28553 0.40841,0.63451 l 0.15926,0.63451 0.75407,-0.63451 c 0.58518,-0.49239 1.03985,-0.63451 2.02999,-0.63451 1.10455,0 1.38838,0.11247 2.11333,0.83742 1.87437,1.87437 1.85893,5.61023 -0.031,7.50015 -0.81957,0.81957 -0.94677,0.86191 -2.26177,0.75286 -1.00317,-0.0832 -1.57065,-0.28209 -2.02641,-0.71026 l -0.63305,-0.59472 v 2.33027 c 0,1.90203 -0.07,2.33028 -0.381,2.33028 -0.3283,0 -0.381,-0.86078 -0.381,-6.223 z m 4.99241,1.87229 c 1.26782,-1.05219 1.6564,-4.43268 0.69857,-6.07728 -0.95686,-1.64295 -3.00358,-1.9345 -4.32236,-0.61572 -0.56165,0.56165 -0.60662,0.80226 -0.60662,3.2458 0,2.83696 0.11948,3.12732 1.52922,3.71626 0.7459,0.31162 2.17277,0.16949 2.70119,-0.26906 z m 71.26255,0.92044 c -1.4336,-0.6229 -1.82081,-1.91079 -1.82738,-6.07804 -0.005,-3.05293 0.0658,-3.6867 0.51365,-4.61188 0.6816,-1.408 1.84249,-1.98056 3.70288,-1.82629 1.46511,0.1215 2.14701,0.5635 2.85239,1.84888 0.63649,1.15982 0.60789,8.03571 -0.0383,9.21933 -0.91456,1.67511 -3.21019,2.31396 -5.20321,1.448 z m 2.7301,-1.88703 c 0.34386,-0.6425 0.34386,-7.7729 0,-8.4154 -0.14897,-0.27836 -0.52987,-0.4913 -0.8788,-0.4913 -0.93117,0 -1.20287,1.29001 -1.10219,5.23321 0.0886,3.4702 0.29708,4.16479 1.25009,4.16479 0.25738,0 0.58629,-0.22109 0.7309,-0.4913 z m 5.70633,1.68403 -0.74439,-0.63986 -0.077,-5.73743 -0.077,-5.73744 h 1.2835 1.28351 v 4.9697 c 0,2.94 0.10739,5.17035 0.26294,5.461 0.33125,0.61896 1.05583,0.63108 1.60269,0.0268 0.36117,-0.39909 0.42037,-1.16815 0.42037,-5.461 v -4.9965 h 1.27 1.27 v 6.223 6.223 h -1.016 c -0.95956,0 -1.016,-0.0423 -1.016,-0.762 0,-0.4191 -0.0588,-0.762 -0.13058,-0.762 -0.0718,0 -0.44329,0.34996 -0.8255,0.77768 -0.99508,1.11359 -2.48825,1.29033 -3.50653,0.41505 z m 14.732,0 -0.74439,-0.63986 -0.077,-5.73743 -0.077,-5.73744 h 1.2835 1.28351 v 4.9697 c 0,2.94 0.10739,5.17035 0.26294,5.461 0.33125,0.61896 1.05583,0.63108 1.60269,0.0268 0.36117,-0.39909 0.42037,-1.16815 0.42037,-5.461 v -4.9965 h 1.27 1.27 v 6.223 6.223 h -1.016 c -0.95956,0 -1.016,-0.0423 -1.016,-0.762 0,-0.4191 -0.0588,-0.762 -0.13058,-0.762 -0.0718,0 -0.44329,0.34996 -0.8255,0.77768 -0.99508,1.11359 -2.48825,1.29033 -3.50653,0.41505 z m 11.96916,-0.0569 c -0.92457,-0.62744 -0.94944,-0.63036 -1.08107,-0.127 -0.10951,0.41875 -0.34316,0.5152 -1.2481,0.5152 h -1.11338 v -8.89 -8.89 h 1.27 1.27 v 3.32831 3.32831 l 0.89784,-0.78831 c 1.84849,-1.62299 3.72376,-0.78671 4.21272,1.87869 0.40085,2.18504 0.16904,7.65109 -0.36828,8.68408 -0.87771,1.68737 -2.25949,2.0331 -3.83973,0.96072 z m 1.12945,-1.6438 c 0.4615,-0.4615 0.508,-0.84667 0.508,-4.2077 0,-2.06456 -0.11621,-3.91683 -0.26294,-4.191 -0.33961,-0.63458 -1.1252,-0.62716 -1.76906,0.0167 -0.46267,0.46267 -0.508,0.84667 -0.508,4.3036 0,3.63432 0.024,3.81239 0.56452,4.191 0.72648,0.50884 0.85597,0.49891 1.46748,-0.1126 z m 6.71796,1.89193 c -1.53618,-0.75815 -1.76496,-1.54664 -1.76496,-6.08293 0,-3.58429 0.0587,-4.16096 0.49684,-4.8854 0.61663,-1.01944 1.78088,-1.59275 3.22455,-1.58786 2.45776,0.008 3.28734,1.16983 3.46459,4.85075 l 0.12094,2.51151 h -2.44696 -2.44696 v 1.25346 c 0,1.74739 0.34993,2.55654 1.10561,2.55654 0.71949,0 1.09847,-0.39465 1.21955,-1.27 0.0776,-0.56125 0.22636,-0.64393 1.28054,-0.71185 l 1.1927,-0.0769 -0.14372,0.96586 c -0.079,0.53122 -0.31033,1.23257 -0.51396,1.55857 -0.75435,1.20766 -3.23752,1.68379 -4.78876,0.91821 z m 2.93404,-8.25863 c 0,-1.84369 -0.30785,-2.5233 -1.143,-2.5233 -0.83515,0 -1.143,0.67961 -1.143,2.5233 v 1.5407 h 1.143 1.143 z m -171.958,2.3027 v -6.096 l 2.2225,0.006 c 2.61833,0.007 3.97788,0.50348 4.94741,1.80827 0.87945,1.18357 1.21233,2.31899 1.21067,4.12955 -0.002,2.25374 -0.4116,3.4269 -1.61532,4.62717 -1.18012,1.17674 -2.62101,1.62143 -5.25376,1.62143 h -1.5115 z m 4.90952,4.98754 c 1.88641,-0.78819 2.85182,-2.90072 2.64715,-5.79249 -0.2105,-2.97394 -1.51151,-4.35806 -4.38574,-4.66586 -0.9004,-0.0964 -1.81075,-0.10868 -2.02301,-0.0272 -0.3283,0.12598 -0.38592,0.94568 -0.38592,5.49006 v 5.34197 h 1.65916 c 0.91254,0 2.0323,-0.15591 2.48836,-0.34646 z m 7.29621,0.55858 c -1.31571,-0.89417 -1.85314,-2.00191 -1.87058,-3.85554 -0.0286,-3.04171 1.57149,-4.87807 4.07541,-4.67713 1.97836,0.15876 3.11544,1.47758 3.11544,3.61339 v 0.89716 h -3.175 -3.175 l 9.4e-4,0.8255 c 0.003,2.58552 3.11838,4.07328 5.16253,2.46535 0.85251,-0.67058 1.09203,-0.22725 0.28621,0.52977 -0.95606,0.89818 -3.24154,1.00236 -4.41996,0.2015 z m 4.55827,-5.38156 c 0,-1.74188 -2.16129,-3.1585 -3.69426,-2.42141 -0.82407,0.39623 -1.89374,1.83569 -1.89374,2.54841 0,0.42941 0.2437,0.47044 2.794,0.47044 2.76409,0 2.794,-0.006 2.794,-0.59744 z m 3.55195,1.67694 c -0.87665,-2.33998 -1.64664,-4.39738 -1.7111,-4.572 -0.0645,-0.17463 0.0583,-0.3175 0.27273,-0.3175 0.23844,0 0.58144,0.51803 0.88293,1.3335 0.27115,0.73343 0.92242,2.50972 1.44725,3.94733 0.52484,1.4376 0.99458,2.5735 1.04387,2.5242 0.0493,-0.0493 0.70464,-1.79701 1.45632,-3.88382 0.94052,-2.61107 1.49825,-3.82013 1.78858,-3.87734 0.36392,-0.0717 0.33208,0.15513 -0.23173,1.651 -0.35948,0.95377 -1.12341,3.02 -1.69761,4.59163 -0.5742,1.57162 -1.182,2.8575 -1.35067,2.8575 -0.16867,0 -1.02393,-1.91453 -1.90057,-4.2545 z m 8.65378,3.70462 c -1.31571,-0.89417 -1.85314,-2.00191 -1.87058,-3.85554 -0.0286,-3.04171 1.57149,-4.87807 4.07541,-4.67713 1.97836,0.15876 3.11544,1.47758 3.11544,3.61339 v 0.89716 h -3.175 -3.175 l 10e-4,0.8255 c 0.003,2.58552 3.11838,4.07328 5.16253,2.46535 0.85251,-0.67058 1.09202,-0.22725 0.28621,0.52977 -0.95606,0.89818 -3.24154,1.00236 -4.41996,0.2015 z m 4.55827,-5.38156 c 0,-1.74188 -2.16129,-3.1585 -3.69426,-2.42141 -0.82407,0.39623 -1.89374,1.83569 -1.89374,2.54841 0,0.42941 0.2437,0.47044 2.794,0.47044 2.76409,0 2.794,-0.006 2.794,-0.59744 z m 3.048,-0.54556 c 0,-5.588 0.0523,-6.477 0.381,-6.477 0.32871,0 0.381,0.889 0.381,6.477 0,5.588 -0.0523,6.477 -0.381,6.477 -0.32871,0 -0.381,-0.889 -0.381,-6.477 z m 4.80006,5.90215 c -2.48403,-1.65452 -2.46887,-6.34048 0.0259,-8.01678 0.74653,-0.5016 1.12896,-0.58052 2.38631,-0.49248 1.33219,0.0933 1.5896,0.20556 2.33421,1.01807 2.00818,2.1913 1.68738,5.92235 -0.64432,7.49368 -1.15302,0.77702 -2.93343,0.77594 -4.10214,-0.002 z m 4.1115,-0.8428 c 0.97821,-0.93719 1.39373,-2.75994 1.00168,-4.39416 -0.72834,-3.03607 -4.05749,-3.76322 -5.60552,-1.22436 -0.69713,1.14333 -0.68843,3.79925 0.0162,4.95503 1.00349,1.64592 3.22658,1.96743 4.5876,0.66349 z m 14.97817,0.86777 c -1.31571,-0.89417 -1.85314,-2.00191 -1.87058,-3.85554 -0.0286,-3.04171 1.57149,-4.87807 4.07541,-4.67713 1.97836,0.15876 3.11544,1.47758 3.11544,3.61339 v 0.89716 h -3.175 -3.175 l 0.001,0.8255 c 0.003,2.58552 3.11838,4.07328 5.16253,2.46535 0.85251,-0.67058 1.09202,-0.22725 0.28621,0.52977 -0.95606,0.89818 -3.24154,1.00236 -4.41996,0.2015 z m 4.55827,-5.38156 c 0,-1.74188 -2.16129,-3.1585 -3.69426,-2.42141 -0.82407,0.39623 -1.89374,1.83569 -1.89374,2.54841 0,0.42941 0.2437,0.47044 2.794,0.47044 2.76409,0 2.794,-0.006 2.794,-0.59744 z m 3.96877,5.12501 c -1.88992,-1.88992 -1.90536,-5.62578 -0.031,-7.50015 1.08396,-1.08396 2.62184,-1.16417 4.02777,-0.21007 l 0.92445,0.62734 v -2.53234 c 0,-2.08165 0.0678,-2.53235 0.381,-2.53235 0.32871,0 0.381,0.889 0.381,6.477 0,5.588 -0.0523,6.477 -0.381,6.477 -0.24369,0 -0.381,-0.24481 -0.381,-0.67928 v -0.67927 l -0.63305,0.59472 c -0.45576,0.42817 -1.02324,0.62707 -2.02641,0.71026 -1.315,0.10905 -1.4422,0.0667 -2.26177,-0.75286 z m 3.29909,0.0479 c 0.15558,-0.002 0.5842,-0.30481 0.9525,-0.67311 0.63125,-0.63124 0.66964,-0.81054 0.66964,-3.12748 0,-2.41106 -0.0148,-2.47203 -0.77868,-3.20386 -0.6178,-0.59189 -1.00715,-0.74602 -1.88454,-0.74602 -1.48791,0 -2.2972,0.77144 -2.70068,2.57439 -0.67741,3.02698 0.81526,5.69728 2.9509,5.27903 0.2794,-0.0547 0.63529,-0.10104 0.79086,-0.10295 z m 10.50414,-1.08297 c -0.29563,-1.01283 -0.87197,-2.9759 -1.28075,-4.36238 -0.85476,-2.89908 -0.86027,-2.94012 -0.39524,-2.94012 0.23302,0 0.7132,1.31896 1.45335,3.99208 l 1.10535,3.99208 1.25925,-3.99208 c 0.74382,-2.3581 1.38945,-3.99208 1.57735,-3.99208 0.2698,0 1.90414,4.65224 2.5273,7.1941 0.0967,0.3944 0.25849,0.623 0.35956,0.508 0.10106,-0.11501 0.6186,-1.89502 1.15009,-3.9556 0.76618,-2.97052 1.05541,-3.7465 1.39643,-3.7465 0.37067,0 0.24759,0.62292 -0.89083,4.5085 -0.84499,2.88408 -1.44116,4.5085 -1.65464,4.5085 -0.20472,0 -0.83749,-1.51113 -1.63696,-3.90923 l -1.30325,-3.90924 -1.247,3.97274 c -0.73637,2.34595 -1.37712,3.97273 -1.56475,3.97273 -0.17569,0 -0.55806,-0.82332 -0.85526,-1.8415 z m 11.692,-2.7305 c 0,-3.89467 0.0564,-4.572 0.381,-4.572 0.32456,0 0.381,0.67733 0.381,4.572 0,3.89467 -0.0564,4.572 -0.381,4.572 -0.32456,0 -0.381,-0.67733 -0.381,-4.572 z m 4.572,4.064 c -0.46129,-0.46129 -0.508,-0.84667 -0.508,-4.191 v -3.683 h -0.889 c -0.62089,0 -0.889,-0.1149 -0.889,-0.381 0,-0.2661 0.26811,-0.381 0.889,-0.381 0.8843,0 0.889,-0.006 0.889,-1.143 0,-0.84667 0.0988,-1.143 0.381,-1.143 0.28222,0 0.381,0.29633 0.381,1.143 0,1.13695 0.005,1.143 0.889,1.143 0.62089,0 0.889,0.1149 0.889,0.381 0,0.2661 -0.26811,0.381 -0.889,0.381 h -0.889 v 3.55014 c 0,3.50361 0.008,3.55559 0.63304,3.96493 0.34817,0.22813 0.80537,0.34866 1.016,0.26783 0.23415,-0.0899 0.38296,-0.002 0.38296,0.22607 0,0.57976 -1.66986,0.48117 -2.286,-0.13497 z m 4.318,-5.969 c 0,-5.588 0.0523,-6.477 0.381,-6.477 0.31471,0 0.381,0.46859 0.381,2.69331 v 2.69331 l 0.89784,-0.78831 c 0.72169,-0.63365 1.12362,-0.78831 2.0487,-0.78831 2.45961,0 2.89546,0.85905 2.89546,5.70684 0,2.88592 -0.0611,3.43716 -0.381,3.43716 -0.31931,0 -0.38161,-0.54494 -0.38474,-3.3655 -0.004,-3.70577 -0.20124,-4.42218 -1.37102,-4.98307 -0.98746,-0.47347 -2.48305,-0.0204 -3.18448,0.96465 -0.46127,0.6478 -0.52076,1.11132 -0.52076,4.05763 0,2.78737 -0.0617,3.32629 -0.381,3.32629 -0.32871,0 -0.381,-0.889 -0.381,-6.477 z m 15.24,3.56803 c 0,-2.77663 -0.0693,-3.15852 -1.524,-8.39403 -0.8382,-3.01678 -1.524,-5.59394 -1.524,-5.72703 0,-0.13308 0.5715,-0.24197 1.27,-0.24197 0.6985,0 1.27,0.0468 1.27,0.10399 0,0.306 1.81358,8.65226 1.89853,8.73721 0.0554,0.0554 0.1774,-0.3396 0.27113,-0.87775 0.0937,-0.53815 0.50115,-2.49208 0.90538,-4.34208 0.40423,-1.85 0.73496,-3.42163 0.73496,-3.4925 0,-0.0709 0.5715,-0.12887 1.27,-0.12887 0.6985,0 1.27,0.11534 1.27,0.25631 0,0.14097 -0.6858,2.69309 -1.524,5.67139 -1.46632,5.21012 -1.524,5.52728 -1.524,8.37969 v 2.96461 h -1.397 -1.397 z m 24.892,-4.58403 v -7.493 h -1.397 -1.397 v -1.143 -1.143 h 4.064 4.064 v 1.143 1.143 h -1.397 -1.397 v 7.493 7.493 h -1.27 -1.27 z m -48.99403,-4.0303 c -0.21959,-0.26458 -0.19418,-0.42536 0.10666,-0.67503 0.48548,-0.40291 1.02721,0.0219 0.79607,0.62426 -0.18814,0.49028 -0.52237,0.50908 -0.90273,0.0508 z"
         id="path3931"
         inkscape:connector-curvature="0" />
      <path
         style="fill:#979797;stroke-width:0.25400001"
         d="m 191.58857,251.42515 c 0,-5.67845 0.1785,-7.31643 0.60996,-5.59735 l 0.15703,0.62566 0.92195,-0.62566 c 1.18361,-0.80322 2.79082,-0.84411 3.74288,-0.0952 1.13228,0.89065 1.52815,1.93762 1.52815,4.04157 0,2.11783 -0.39485,3.14884 -1.5574,4.06654 -0.95543,0.75421 -3.07515,0.61755 -4.00752,-0.25837 l -0.63305,-0.59472 v 2.33027 c 0,1.90203 -0.07,2.33028 -0.381,2.33028 -0.3283,0 -0.381,-0.86078 -0.381,-6.223 z m 5.2618,1.52853 c 1.66595,-1.91704 1.20459,-5.9877 -0.78772,-6.95024 -0.93048,-0.44955 -2.32474,-0.17972 -3.10546,0.601 -0.56165,0.56165 -0.60662,0.80226 -0.60662,3.2458 0,2.2026 0.0744,2.7065 0.44972,3.04617 1.22349,1.10724 3.1144,1.13398 4.05008,0.0573 z m 70.96771,1.2115 c -1.42207,-0.70054 -1.79562,-1.90138 -1.80051,-5.78803 -0.005,-3.83086 0.21202,-4.8351 1.26113,-5.84021 0.61869,-0.59274 1.04018,-0.75071 2.22411,-0.83354 1.95896,-0.13707 3.0487,0.56102 3.68661,2.36163 0.65964,1.86194 0.52598,7.49085 -0.20804,8.76143 -0.94485,1.63552 -3.31392,2.24976 -5.1633,1.33872 z m 2.79315,-1.75857 c 0.2572,-0.3099 0.34487,-1.39879 0.34487,-4.28346 0,-4.15972 -0.14729,-4.699 -1.28343,-4.699 -0.91719,0 -1.18978,1.34462 -1.08466,5.35029 0.0493,1.87699 0.18203,3.55558 0.29505,3.73021 0.29218,0.45144 1.32057,0.3931 1.72817,-0.098 z m 5.66873,1.60827 -0.74439,-0.63986 -0.077,-5.73743 -0.077,-5.73744 h 1.2835 1.28351 v 5.03145 c 0,5.68846 0.13034,6.21061 1.4358,5.75183 l 0.7232,-0.25415 0.0686,-5.26457 0.0687,-5.26456 h 1.26484 1.26485 v 6.223 6.223 h -1.016 c -0.95956,0 -1.016,-0.0423 -1.016,-0.762 0,-0.4191 -0.0588,-0.762 -0.13058,-0.762 -0.0718,0 -0.44329,0.34996 -0.8255,0.77768 -0.99508,1.11359 -2.48825,1.29033 -3.50653,0.41505 z m 14.732,0 -0.74439,-0.63986 -0.077,-5.73743 -0.077,-5.73744 h 1.2835 1.28351 v 5.03145 c 0,5.68846 0.13034,6.21061 1.4358,5.75183 l 0.7232,-0.25415 0.0686,-5.26457 0.0687,-5.26456 h 1.26484 1.26485 v 6.223 6.223 h -1.016 c -0.95956,0 -1.016,-0.0423 -1.016,-0.762 0,-0.4191 -0.0588,-0.762 -0.13058,-0.762 -0.0718,0 -0.44329,0.34996 -0.8255,0.77768 -0.99508,1.11359 -2.48825,1.29033 -3.50653,0.41505 z m 12.46361,0.29046 c -0.2794,-0.15365 -0.69938,-0.51885 -0.93329,-0.81155 l -0.42528,-0.53217 -0.17375,0.69226 c -0.15617,0.62223 -0.28661,0.69227 -1.28922,0.69227 h -1.11546 v -8.89 -8.89 h 1.27 1.27 v 3.302 c 0,1.8161 0.0693,3.302 0.15394,3.302 0.0847,0 0.37538,-0.2815 0.64601,-0.62556 0.57851,-0.73546 2.0281,-1.0802 2.89027,-0.68737 1.10197,0.50209 1.46307,1.66562 1.58991,5.12293 0.14362,3.91468 -0.20611,5.88706 -1.22444,6.90538 -0.75997,0.75998 -1.75455,0.91702 -2.65869,0.41981 z m 0.7476,-2.04771 c 0.31325,-0.44723 0.3954,-1.32142 0.3954,-4.20769 0,-2.02561 -0.11674,-3.86133 -0.26294,-4.13449 -0.35669,-0.66648 -1.39176,-0.6262 -1.88166,0.0732 -0.58172,0.83052 -0.5786,7.85199 0.004,8.43434 0.56348,0.56348 1.28267,0.49534 1.74545,-0.16538 z m 6.8724,2.11545 c -1.59278,-0.70664 -2.15558,-2.32416 -2.15758,-6.20095 -0.003,-4.76219 0.77666,-6.2532 3.38041,-6.46912 2.77517,-0.23014 3.70546,0.91059 3.92016,4.80691 l 0.13788,2.50223 h -2.44994 -2.44993 v 1.4137 c 0,1.70296 0.3243,2.3963 1.12084,2.3963 0.70498,0 1.08392,-0.39961 1.20432,-1.27 0.0789,-0.57025 0.2044,-0.635 1.23084,-0.635 1.22796,0 1.26005,0.0665 0.88052,1.82464 -0.27022,1.25174 -3.33434,2.2893 -4.81752,1.63129 z m 2.667,-8.42563 c 0,-1.84369 -0.30785,-2.5233 -1.143,-2.5233 -0.83515,0 -1.143,0.67961 -1.143,2.5233 v 1.5407 h 1.143 1.143 z m -171.958,2.3165 v -6.1574 l 2.496,0.0873 c 2.21844,0.0776 2.61333,0.16501 3.55099,0.78608 1.41552,0.9376 2.13145,2.39543 2.27631,4.63522 0.14383,2.22388 -0.23973,3.68063 -1.28152,4.86717 -1.08456,1.23525 -2.11186,1.61963 -4.79284,1.79332 l -2.24894,0.1457 z m 4.92476,4.96737 c 0.46444,-0.19406 1.13742,-0.66879 1.4955,-1.05497 1.57629,-1.69995 1.58659,-6.29974 0.018,-8.03302 -0.79004,-0.87299 -1.84386,-1.26466 -3.80084,-1.41267 l -1.87541,-0.14183 v 5.49766 5.49766 h 1.65916 c 0.91254,0 2.03916,-0.15877 2.5036,-0.35283 z m 7.57666,0.69241 c -2.86988,-1.41451 -2.90126,-6.86894 -0.048,-8.34441 2.36749,-1.22428 5.07259,0.52526 5.07259,3.28072 v 0.91411 h -3.26789 -3.2679 l 0.1839,1.00564 c 0.25357,1.38668 0.8928,2.27001 1.96771,2.71914 1.07821,0.45051 2.28074,0.28732 3.19766,-0.43393 0.72262,-0.56841 1.16484,-0.26973 0.48203,0.32556 -1.19805,1.04451 -2.86519,1.25026 -4.32009,0.53317 z m 4.17669,-5.85043 c -0.3585,-2.2092 -2.90388,-3.04763 -4.47538,-1.47415 -0.41857,0.4191 -0.8351,1.13348 -0.92563,1.5875 l -0.1646,0.8255 h 2.85898 2.85899 z m 3.70477,2.14535 c -0.84788,-2.27012 -1.62116,-4.32753 -1.71841,-4.572 -0.12095,-0.30404 -0.0567,-0.4445 0.20314,-0.4445 0.25076,0 0.70318,0.88535 1.33042,2.6035 1.78966,4.90228 1.94977,5.30537 2.06245,5.19269 0.0621,-0.0621 0.7235,-1.81304 1.46984,-3.89103 0.92095,-2.56417 1.4905,-3.80487 1.77253,-3.86129 0.35916,-0.0718 0.33375,0.135 -0.18719,1.524 -0.33151,0.88392 -1.10358,2.95015 -1.71572,4.59163 -0.61213,1.64147 -1.23953,2.9845 -1.39422,2.9845 -0.15469,0 -0.97497,-1.85738 -1.82284,-4.1275 z m 8.88254,3.70508 c -2.86987,-1.41451 -2.90126,-6.86894 -0.048,-8.34441 2.36749,-1.22428 5.07259,0.52526 5.07259,3.28072 v 0.91411 h -3.2679 -3.26789 l 0.1839,1.00564 c 0.25357,1.38668 0.89279,2.27001 1.96771,2.71914 1.07821,0.45051 2.28075,0.28732 3.19766,-0.43393 0.72261,-0.56841 1.16484,-0.26973 0.48203,0.32556 -1.19805,1.04451 -2.86519,1.25026 -4.32009,0.53317 z m 4.17669,-5.85043 c -0.3585,-2.2092 -2.90389,-3.04763 -4.47538,-1.47415 -0.41857,0.4191 -0.8351,1.13348 -0.92563,1.5875 l -0.1646,0.8255 h 2.85898 2.85899 z m 3.13389,-0.20415 c 0,-5.588 0.0523,-6.477 0.381,-6.477 0.32871,0 0.381,0.889 0.381,6.477 0,5.588 -0.0523,6.477 -0.381,6.477 -0.32871,0 -0.381,-0.889 -0.381,-6.477 z m 4.82216,5.9055 c -0.46253,-0.31433 -1.06237,-1.00056 -1.33296,-1.52496 -0.66327,-1.28538 -0.66327,-3.6657 0,-4.95108 1.4386,-2.78794 5.16315,-2.82286 6.78407,-0.0636 0.72589,1.23567 0.72589,3.84261 0,5.07828 -1.16809,1.98841 -3.68332,2.6627 -5.45111,1.46136 z m 4.23004,-1.02939 c 2.09001,-2.28058 0.95966,-6.60268 -1.81335,-6.93373 -2.08882,-0.24938 -3.42885,1.26923 -3.42885,3.8858 0,1.9104 0.44816,2.93494 1.59983,3.65739 1.19682,0.75078 2.61297,0.51382 3.64237,-0.60946 z m 15.13322,1.17847 c -2.86987,-1.41451 -2.90126,-6.86894 -0.048,-8.34441 2.36749,-1.22428 5.07259,0.52526 5.07259,3.28072 v 0.91411 h -3.2679 -3.26789 l 0.1839,1.00564 c 0.25357,1.38668 0.89279,2.27001 1.96771,2.71914 1.07821,0.45051 2.28075,0.28732 3.19766,-0.43393 0.72261,-0.56841 1.16484,-0.26973 0.48203,0.32556 -1.19805,1.04451 -2.86519,1.25026 -4.32009,0.53317 z m 4.17669,-5.85043 c -0.3585,-2.2092 -2.90389,-3.04763 -4.47538,-1.47415 -0.41857,0.4191 -0.8351,1.13348 -0.92563,1.5875 l -0.1646,0.8255 h 2.85898 2.85899 z m 4.02367,5.43543 c -0.46058,-0.46058 -0.96286,-1.28925 -1.11618,-1.8415 -0.6032,-2.17266 -0.17379,-4.33768 1.11618,-5.62766 1.08396,-1.08396 2.62184,-1.16417 4.02777,-0.21007 l 0.92445,0.62734 v -2.53234 c 0,-2.08165 0.0678,-2.53235 0.381,-2.53235 0.32871,0 0.381,0.889 0.381,6.477 0,5.588 -0.0523,6.477 -0.381,6.477 -0.23583,0 -0.381,-0.23904 -0.381,-0.62735 v -0.62734 l -0.92445,0.62734 c -1.40593,0.9541 -2.94381,0.87389 -4.02777,-0.21007 z m 3.54293,-0.0301 c 1.20569,-0.50377 1.40929,-1.04988 1.40929,-3.78017 0,-2.24347 -0.042,-2.43705 -0.66347,-3.05852 -1.28408,-1.28408 -3.13661,-1.10442 -4.25982,0.41313 -0.76668,1.03583 -0.76991,4.40217 -0.005,5.43256 0.97412,1.31259 2.03674,1.61242 3.51923,0.993 z m 10.70717,0.423 c -0.65949,-2.18182 -2.43988,-8.41265 -2.43988,-8.53884 0,-0.0884 0.15353,-0.16066 0.34117,-0.16066 0.22335,0 0.66644,1.2061 1.28307,3.4925 0.51804,1.92087 1.02901,3.71148 1.13549,3.97913 0.18979,0.47708 0.38054,-0.0399 2.21769,-6.01113 0.24714,-0.80328 0.58933,-1.4605 0.7604,-1.4605 0.26713,0 1.16492,2.5322 2.41188,6.80265 0.17468,0.59821 0.39564,0.99826 0.49102,0.889 0.0954,-0.10926 0.61912,-1.88443 1.16385,-3.94483 0.60768,-2.29847 1.11313,-3.7463 1.30793,-3.7465 0.46576,-4.8e-4 0.41951,0.23966 -0.92953,4.82568 -0.7969,2.70906 -1.35269,4.191 -1.57179,4.191 -0.21341,0 -0.80936,-1.45827 -1.60894,-3.937 l -1.26998,-3.937 -1.27863,4.00006 c -1.1981,3.74814 -1.6921,4.62058 -2.01375,3.55644 z m 11.27612,-4.1275 c 0,-3.89467 0.0564,-4.572 0.381,-4.572 0.32456,0 0.381,0.67733 0.381,4.572 0,3.89467 -0.0564,4.572 -0.381,4.572 -0.32456,0 -0.381,-0.67733 -0.381,-4.572 z m 4.572,4.064 c -0.46129,-0.46129 -0.508,-0.84667 -0.508,-4.191 v -3.683 h -0.889 c -0.62089,0 -0.889,-0.1149 -0.889,-0.381 0,-0.2661 0.26811,-0.381 0.889,-0.381 0.8843,0 0.889,-0.006 0.889,-1.143 0,-0.84667 0.0988,-1.143 0.381,-1.143 0.28222,0 0.381,0.29633 0.381,1.143 0,1.13695 0.005,1.143 0.889,1.143 0.62089,0 0.889,0.1149 0.889,0.381 0,0.2661 -0.26811,0.381 -0.889,0.381 h -0.889 l 0.004,3.4925 c 0.002,1.92087 0.10437,3.65117 0.22718,3.8451 0.12281,0.19393 0.578,0.36538 1.01153,0.381 1.11464,0.0402 1.02107,0.6634 -0.0996,0.6634 -0.55033,0 -1.08252,-0.19352 -1.397,-0.508 z m 4.318,-5.969 c 0,-5.588 0.0523,-6.477 0.381,-6.477 0.3149,0 0.381,0.47095 0.381,2.71452 v 2.71452 l 0.75013,-0.71866 c 0.55305,-0.52986 1.07716,-0.75009 1.99496,-0.83828 2.57561,-0.24749 3.09691,0.70269 3.09691,5.64474 0,2.88592 -0.0611,3.43716 -0.381,3.43716 -0.31979,0 -0.381,-0.54901 -0.381,-3.41705 0,-3.67124 -0.19547,-4.48701 -1.18296,-4.93694 -0.83776,-0.38171 -1.49584,-0.35463 -2.37024,0.0975 -1.37674,0.71194 -1.5268,1.19196 -1.5268,4.88397 0,2.82843 -0.0615,3.37248 -0.381,3.37248 -0.32871,0 -0.381,-0.889 -0.381,-6.477 z m 15.2364,3.4925 c -0.003,-2.86589 -0.064,-3.20091 -1.524,-8.42999 -0.83622,-2.99503 -1.5204,-5.5382 -1.5204,-5.6515 0,-0.11331 0.5549,-0.20601 1.2331,-0.20601 h 1.23311 l 0.81021,3.8735 c 0.44561,2.13042 0.87636,4.15925 0.95721,4.5085 l 0.147,0.635 0.20204,-0.635 c 0.11112,-0.34925 0.56985,-2.37808 1.01941,-4.5085 l 0.81737,-3.8735 h 1.23527 c 0.67941,0 1.23528,0.0951 1.23528,0.21127 0,0.11619 -0.6858,2.65002 -1.524,5.63073 -1.47143,5.23254 -1.524,5.52313 -1.524,8.42473 v 3.00527 h -1.397 -1.397 l -0.004,-2.9845 z m 24.8956,-4.5085 v -7.493 h -1.397 -1.397 v -1.143 -1.143 h 4.064 4.064 v 1.143 1.143 h -1.397 -1.397 v 7.493 7.493 h -1.27 -1.27 z m -49.00656,-4.0454 c -0.20272,-0.24426 -0.17696,-0.41415 0.0973,-0.64177 0.41918,-0.34789 0.90326,-0.15657 0.90326,0.35699 0,0.48528 -0.67477,0.67734 -1.00056,0.28478 z"
         id="path3929"
         inkscape:connector-curvature="0" />
      <path
         style="fill:#000000;stroke-width:0.25400001"
         d="m 191.58857,251.42515 c 0,-5.67845 0.1785,-7.31643 0.60996,-5.59735 l 0.15703,0.62566 0.92195,-0.62566 c 1.77627,-1.20541 3.82921,-0.68024 4.84054,1.23828 0.60963,1.15647 0.58972,4.06853 -0.0365,5.34156 -0.93989,1.91063 -3.06779,2.4911 -4.80652,1.31116 l -0.92445,-0.62734 v 2.27834 c 0,1.85587 -0.0707,2.27835 -0.381,2.27835 -0.3283,0 -0.381,-0.86078 -0.381,-6.223 z m 5.22145,1.63743 c 1.37316,-1.29003 1.38013,-5.28029 0.0114,-6.56609 -1.18467,-1.11295 -3.50559,-0.84544 -4.21826,0.4862 -0.15598,0.29145 -0.23978,1.60309 -0.19803,3.09945 l 0.0724,2.59418 0.889,0.60277 c 1.08216,0.73375 2.52876,0.64279 3.44345,-0.21651 z m 71.09251,1.1435 c -1.52616,-0.7532 -1.76496,-1.55903 -1.76496,-5.95593 0,-4.41234 0.17037,-5.04377 1.62506,-6.02302 1.11395,-0.74987 2.87336,-0.7788 4.04173,-0.0665 1.39574,0.85096 1.6937,1.89808 1.69664,5.96249 0.002,3.0513 -0.0695,3.7002 -0.50543,4.572 -0.85924,1.71849 -3.24086,2.42503 -5.09304,1.51093 z m 2.71244,-1.80397 c 0.26174,-0.31538 0.3486,-1.38157 0.3486,-4.27896 0,-4.16526 -0.1485,-4.699 -1.30739,-4.699 -0.90604,0 -1.10561,0.84818 -1.10561,4.699 0,1.86776 0.11147,3.68912 0.24771,4.04746 0.2907,0.76461 1.27062,0.88948 1.81669,0.2315 z m 5.63326,1.58548 -0.71266,-0.61257 -0.077,-5.73743 -0.077,-5.73744 h 1.27835 1.27835 l 0.0687,5.24304 c 0.0599,4.57728 0.12259,5.27704 0.49342,5.51076 0.30197,0.19032 0.61407,0.18147 1.0795,-0.0306 l 0.65473,-0.29831 v -5.21244 -5.21245 h 1.27 1.27 v 6.223 6.223 h -1.016 c -0.95956,0 -1.016,-0.0423 -1.016,-0.762 0,-0.80205 -0.35206,-1.02673 -0.5993,-0.38245 -0.21468,0.55945 -1.71073,1.39641 -2.49804,1.3975 -0.37638,5.3e-4 -1.00503,-0.2747 -1.397,-0.61161 z m 14.732,0 -0.71266,-0.61257 -0.077,-5.73743 -0.077,-5.73744 h 1.27835 1.27835 l 0.0687,5.24304 c 0.0599,4.57728 0.12259,5.27704 0.49342,5.51076 0.30197,0.19032 0.61407,0.18147 1.0795,-0.0306 l 0.65473,-0.29831 v -5.21244 -5.21245 h 1.27 1.27 v 6.223 6.223 h -1.016 c -0.95956,0 -1.016,-0.0423 -1.016,-0.762 0,-0.80205 -0.35206,-1.02673 -0.5993,-0.38245 -0.21468,0.55945 -1.71073,1.39641 -2.49804,1.3975 -0.37638,5.3e-4 -1.00503,-0.2747 -1.397,-0.61161 z m 12.49547,0.21218 c -0.41903,-0.21849 -0.85468,-0.56309 -0.96811,-0.76578 -0.26553,-0.47446 -0.68302,-0.21825 -0.68302,0.41915 0,0.41497 -0.18092,0.49301 -1.143,0.49301 h -1.143 v -8.89 -8.89 h 1.27 1.27 v 3.302 c 0,1.8161 0.052,3.302 0.11546,3.302 0.0635,0 0.39655,-0.2811 0.74012,-0.62467 1.34574,-1.34574 3.02929,-1.12717 3.84342,0.49898 0.44032,0.87952 0.508,1.52225 0.508,4.82469 0,4.18887 -0.25279,5.37748 -1.32264,6.21903 -0.78057,0.61399 -1.46482,0.64469 -2.48723,0.11159 z m 0.74747,-1.94214 c 0.31325,-0.44723 0.3954,-1.32142 0.3954,-4.20769 0,-2.02561 -0.11674,-3.86133 -0.26294,-4.13449 -0.35669,-0.66648 -1.39176,-0.6262 -1.88166,0.0732 -0.31584,0.45093 -0.3954,1.34275 -0.3954,4.43238 0,3.41571 0.052,3.89812 0.4445,4.12675 0.7097,0.41337 1.27489,0.3169 1.7001,-0.29017 z m 6.8724,1.98628 c -1.68944,-0.74573 -2.15551,-2.05735 -2.15758,-6.07178 -0.003,-4.76219 0.77666,-6.2532 3.38041,-6.46912 2.77517,-0.23014 3.70546,0.91059 3.92016,4.80691 l 0.13788,2.50223 h -2.44994 -2.44993 v 1.4137 c 0,1.70296 0.3243,2.3963 1.12084,2.3963 0.69072,0 1.02874,-0.35718 1.26197,-1.3335 0.14742,-0.61708 0.28473,-0.6985 1.17803,-0.6985 0.95784,0 1.01116,0.0408 1.01116,0.77461 0,1.23034 -0.63304,2.16663 -1.77338,2.62291 -1.23361,0.49359 -2.15202,0.50984 -3.17962,0.0562 z m 2.667,-8.29646 c 0,-1.84369 -0.30785,-2.5233 -1.143,-2.5233 -0.83515,0 -1.143,0.67961 -1.143,2.5233 v 1.5407 h 1.143 1.143 z m -171.958,2.34073 v -6.13403 h 2.24605 c 2.81958,0 4.11668,0.58785 5.21702,2.36439 1.36914,2.21052 1.19338,5.96862 -0.36771,7.86249 -1.0334,1.2537 -2.14544,1.68983 -4.78669,1.87732 l -2.30867,0.16387 z m 5.32896,4.72447 c 1.44102,-0.73622 2.12095,-2.02484 2.2478,-4.26007 0.15732,-2.77193 -0.61321,-4.61276 -2.29478,-5.48233 -0.42304,-0.21876 -1.6131,-0.46158 -2.64457,-0.53959 l -1.87541,-0.14183 v 5.49766 5.49766 h 1.72418 c 1.28727,0 2.00764,-0.14482 2.84278,-0.5715 z m 7.62504,1.15023 c -1.67306,-0.62867 -2.58433,-2.18324 -2.57378,-4.39071 0.0164,-3.42892 2.74011,-5.54784 5.3779,-4.18379 0.90902,0.47007 1.76788,2.06678 1.76788,3.28665 v 0.89912 h -3.29565 -3.29565 l 0.15233,0.8255 c 0.24698,1.33846 0.66858,2.03894 1.61297,2.67995 1.10262,0.74841 2.76274,0.66109 3.67202,-0.19313 0.32581,-0.30609 0.6589,-0.4489 0.74019,-0.31737 0.16181,0.26181 -0.41488,0.84137 -1.28401,1.29041 -0.57334,0.29622 -2.20482,0.35489 -2.8742,0.10337 z m 3.72629,-6.07615 c -0.43458,-2.67803 -3.94569,-3.17131 -5.10991,-0.7179 -0.76158,1.60492 -0.70473,1.64332 2.43285,1.64332 h 2.82724 z m 3.63857,1.90691 c -0.90742,-2.39389 -1.68796,-4.45129 -1.73453,-4.572 -0.0466,-0.12072 0.0815,-0.21949 0.28464,-0.21949 0.24566,0 0.81895,1.25424 1.71245,3.7465 0.73874,2.06058 1.42617,3.84193 1.52763,3.95856 0.19433,0.22339 0.40386,-0.27922 1.99442,-4.78406 0.63591,-1.80105 1.13009,-2.82284 1.39053,-2.87516 0.34095,-0.0685 0.3086,0.16944 -0.2072,1.524 -0.33618,0.88284 -1.10546,2.94788 -1.70952,4.58899 -0.60405,1.6411 -1.21309,2.98413 -1.35342,2.9845 -0.14033,3.8e-4 -0.99758,-1.95796 -1.905,-4.35184 z m 9.39914,4.16924 c -1.67306,-0.62867 -2.58433,-2.18324 -2.57378,-4.39071 0.0164,-3.42892 2.74011,-5.54784 5.3779,-4.18379 0.90901,0.47007 1.76788,2.06678 1.76788,3.28665 v 0.89912 h -3.29565 -3.29565 l 0.15233,0.8255 c 0.24698,1.33846 0.66858,2.03894 1.61297,2.67995 1.10262,0.74841 2.76274,0.66109 3.67202,-0.19313 0.32581,-0.30609 0.6589,-0.4489 0.74019,-0.31737 0.16181,0.26181 -0.41488,0.84137 -1.28401,1.29041 -0.57334,0.29622 -2.20482,0.35489 -2.8742,0.10337 z m 3.72629,-6.07615 c -0.43458,-2.67803 -3.94569,-3.17131 -5.10991,-0.7179 -0.76159,1.60492 -0.70473,1.64332 2.43285,1.64332 h 2.82724 z m 3.13171,-0.21758 c 0,-5.588 0.0523,-6.477 0.381,-6.477 0.32871,0 0.381,0.889 0.381,6.477 0,5.588 -0.0523,6.477 -0.381,6.477 -0.32871,0 -0.381,-0.889 -0.381,-6.477 z m 5.07604,6.00606 c -1.31881,-0.70176 -2.01879,-2.1069 -2.02386,-4.06267 -0.005,-1.97353 0.51005,-3.15371 1.74208,-3.9909 1.83086,-1.2441 4.29063,-0.60958 5.47901,1.41337 0.71301,1.21376 0.70587,3.86445 -0.0137,5.09658 -1.10129,1.88566 -3.30655,2.54238 -5.1835,1.54362 z m 3.15173,-0.42216 c 1.23997,-0.58841 1.79962,-1.73248 1.79962,-3.6789 0,-2.69279 -1.48151,-4.32194 -3.61537,-3.97566 -1.72632,0.28014 -2.60202,1.64399 -2.60202,4.05248 0,1.27201 0.12609,1.81316 0.57913,2.48542 0.98661,1.46403 2.30091,1.84636 3.83864,1.11666 z m 16.41023,0.70983 c -1.67306,-0.62867 -2.58433,-2.18324 -2.57378,-4.39071 0.0164,-3.42892 2.74011,-5.54784 5.3779,-4.18379 0.90901,0.47007 1.76788,2.06678 1.76788,3.28665 v 0.89912 h -3.29565 -3.29565 l 0.15233,0.8255 c 0.24698,1.33846 0.66858,2.03894 1.61297,2.67995 1.10262,0.74841 2.76274,0.66109 3.67202,-0.19313 0.32581,-0.30609 0.6589,-0.4489 0.74019,-0.31737 0.16181,0.26181 -0.41488,0.84137 -1.28401,1.29041 -0.57334,0.29622 -2.20482,0.35489 -2.8742,0.10337 z m 3.72629,-6.07615 c -0.43458,-2.67803 -3.94569,-3.17131 -5.10991,-0.7179 -0.76159,1.60492 -0.70473,1.64332 2.43285,1.64332 h 2.82724 z m 4.47754,5.7617 c -2.21487,-1.35048 -2.47614,-5.78877 -0.45947,-7.80544 1.08753,-1.08753 2.62337,-1.16887 4.03119,-0.21349 l 0.92445,0.62734 v -2.53234 c 0,-2.08165 0.0678,-2.53235 0.381,-2.53235 0.32871,0 0.381,0.889 0.381,6.477 0,5.588 -0.0523,6.477 -0.381,6.477 -0.23583,0 -0.381,-0.23904 -0.381,-0.62735 v -0.62734 l -0.92445,0.62734 c -1.12642,0.76442 -2.45175,0.81252 -3.57172,0.12963 z m 3.08688,-0.36978 c 1.20889,-0.5051 1.40929,-1.04921 1.40929,-3.82635 0,-2.23487 -0.0513,-2.49252 -0.60662,-3.04786 -0.78977,-0.78977 -2.32875,-1.08853 -3.16401,-0.61421 -1.29327,0.7344 -1.69037,1.62332 -1.69037,3.78392 0,1.62794 0.0979,2.12662 0.53249,2.71187 0.9744,1.31229 2.03692,1.61198 3.51922,0.99263 z m 10.71389,0.423 c -0.0702,-0.24448 -0.6494,-2.23401 -1.28712,-4.4212 -0.63771,-2.18718 -1.15948,-4.04455 -1.15948,-4.1275 0,-0.0829 0.15424,-0.1508 0.34277,-0.1508 0.22636,0 0.67152,1.22919 1.31082,3.6195 0.53244,1.99072 1.0446,3.77066 1.13814,3.9554 0.1463,0.28897 1.18734,-2.63993 2.30871,-6.4954 0.59051,-2.03029 0.74704,-1.74483 2.92498,5.334 0.40826,1.32694 0.86916,1.93842 0.86153,1.143 -0.009,-0.92414 1.94333,-7.5565 2.22422,-7.5565 0.17536,0 0.31883,0.0831 0.31883,0.1847 0,0.37898 -2.34305,8.38663 -2.55365,8.72738 -0.37072,0.59985 -0.64612,0.0273 -1.89585,-3.94126 -0.74146,-2.35456 -1.26512,-3.6545 -1.3813,-3.429 -0.10292,0.19975 -0.69047,1.99028 -1.30567,3.97895 -1.04738,3.38578 -1.5427,4.23826 -1.84693,3.17873 z m 11.2694,-4.1275 c 0,-3.89467 0.0564,-4.572 0.381,-4.572 0.32456,0 0.381,0.67733 0.381,4.572 0,3.89467 -0.0564,4.572 -0.381,4.572 -0.32456,0 -0.381,-0.67733 -0.381,-4.572 z m 4.92752,4.37761 c -0.68738,-0.45898 -0.86352,-1.42623 -0.86352,-4.74191 v -3.4457 h -0.889 c -0.62089,0 -0.889,-0.1149 -0.889,-0.381 0,-0.2661 0.26811,-0.381 0.889,-0.381 0.8843,0 0.889,-0.006 0.889,-1.143 0,-0.84667 0.0988,-1.143 0.381,-1.143 0.28222,0 0.381,0.29633 0.381,1.143 0,1.13695 0.005,1.143 0.889,1.143 0.62089,0 0.889,0.1149 0.889,0.381 0,0.2661 -0.26811,0.381 -0.889,0.381 h -0.889 v 3.53786 c 0,3.87073 0.21213,4.50048 1.43709,4.26631 0.38824,-0.0742 0.59491,0.006 0.59491,0.23205 0,0.37216 -1.4317,0.48443 -1.93048,0.15139 z m 3.96248,-6.28261 c 0,-5.588 0.0523,-6.477 0.381,-6.477 0.31487,0 0.381,0.47059 0.381,2.71128 v 2.71127 l 0.5715,-0.52053 c 1.75024,-1.59416 4.04151,-1.44615 4.87726,0.31506 0.56553,1.19177 0.57589,7.73692 0.0122,7.73692 -0.31992,0 -0.381,-0.55173 -0.381,-3.44161 0,-4.06163 -0.24721,-4.8208 -1.65586,-5.08506 -1.08541,-0.20362 -2.23971,0.23142 -2.92475,1.10231 -0.43994,0.55929 -0.49939,1.03898 -0.49939,4.02961 0,2.84822 -0.0613,3.39475 -0.381,3.39475 -0.32871,0 -0.381,-0.889 -0.381,-6.477 z m 15.23784,3.4925 c -0.002,-2.86581 -0.0626,-3.20167 -1.52184,-8.4455 -0.83583,-3.00355 -1.52065,-5.54673 -1.52184,-5.6515 -0.001,-0.10478 0.55018,-0.1905 1.22525,-0.1905 h 1.22742 l 0.83069,4.0005 c 1.10003,5.29761 1.06362,5.17542 1.30562,4.3815 0.10647,-0.34925 0.56138,-2.37808 1.01094,-4.5085 l 0.81737,-3.8735 h 1.23527 c 0.67941,0 1.23528,0.079 1.23528,0.17553 0,0.0965 -0.74295,2.82218 -1.651,6.05697 -1.53744,5.47689 -1.651,6.05883 -1.651,8.46047 v 2.57903 h -1.27 -1.27 l -0.002,-2.9845 z m 24.89416,-4.6355 v -7.62 h -1.397 -1.397 v -1.016 -1.016 h 4.064 4.064 v 1.016 1.016 h -1.397 -1.397 v 7.62 7.62 h -1.27 -1.27 z m -48.93834,-3.95836 c -0.18201,-0.4743 0.2695,-0.99332 0.65621,-0.75432 0.40328,0.24925 0.33727,0.82487 -0.11448,0.99822 -0.22636,0.0869 -0.45416,-0.0157 -0.54173,-0.2439 z"
         id="path3927"
         inkscape:connector-curvature="0" />
    </g>
  </g>
</svg>
